<?xml version="1.0" encoding="UTF-8"?>
<svg xmlns="http://www.w3.org/2000/svg" width="437.91" height="602.04" xmlns:xlink="http://www.w3.org/1999/xlink" viewBox="0 0 437.91 602.04">
  <defs>
    <style>
      .cls-1 {
        fill: url(#radial-gradient-39);
      }

      .cls-2 {
        fill: url(#radial-gradient-46);
      }

      .cls-3 {
        fill: url(#radial-gradient-7);
      }

      .cls-4 {
        fill: url(#radial-gradient-34);
      }

      .cls-5 {
        fill: url(#radial-gradient-10);
      }

      .cls-6 {
        fill: url(#radial-gradient-47);
      }

      .cls-7 {
        fill: url(#radial-gradient-48);
      }

      .cls-8 {
        fill: url(#radial-gradient-31);
      }

      .cls-9 {
        fill: url(#radial-gradient-72);
      }

      .cls-10 {
        fill: url(#radial-gradient-28);
      }

      .cls-11 {
        fill: url(#radial-gradient-65);
      }

      .cls-12 {
        fill: url(#radial-gradient-16);
      }

      .cls-13 {
        fill: url(#radial-gradient-57);
      }

      .cls-14 {
        fill: url(#radial-gradient-50);
      }

      .cls-15 {
        fill: url(#radial-gradient-20);
      }

      .cls-16 {
        fill: url(#radial-gradient-21);
      }

      .cls-17 {
        fill: url(#radial-gradient-8);
      }

      .cls-18 {
        fill: url(#radial-gradient-5);
      }

      .cls-19 {
        fill: url(#radial-gradient-4);
      }

      .cls-20 {
        isolation: isolate;
      }

      .cls-21 {
        fill: url(#radial-gradient-67);
      }

      .cls-22 {
        fill: url(#radial-gradient-68);
      }

      .cls-23 {
        fill: url(#radial-gradient-40);
      }

      .cls-24 {
        fill: url(#radial-gradient-64);
      }

      .cls-25 {
        fill: url(#radial-gradient-32);
      }

      .cls-26 {
        fill: url(#radial-gradient-52);
      }

      .cls-27 {
        fill: url(#radial-gradient-54);
      }

      .cls-28 {
        fill: url(#radial-gradient-76);
      }

      .cls-29 {
        fill: url(#radial-gradient-25);
      }

      .cls-30 {
        fill: url(#radial-gradient-26);
      }

      .cls-31 {
        fill: url(#radial-gradient-22);
      }

      .cls-32 {
        fill: url(#radial-gradient-6);
      }

      .cls-33 {
        fill: url(#radial-gradient-19);
      }

      .cls-34 {
        fill: url(#radial-gradient-60);
      }

      .cls-35 {
        fill: url(#radial-gradient-12);
      }

      .cls-36 {
        fill: url(#radial-gradient-55);
      }

      .cls-37 {
        fill: url(#radial-gradient-49);
      }

      .cls-38 {
        fill: url(#radial-gradient-41);
      }

      .cls-39 {
        fill: url(#radial-gradient-35);
      }

      .cls-40 {
        fill: url(#radial-gradient);
      }

      .cls-41 {
        fill: url(#radial-gradient-75);
      }

      .cls-42 {
        filter: url(#outer-glow-7);
        mix-blend-mode: screen;
      }

      .cls-43 {
        fill: url(#radial-gradient-27);
      }

      .cls-44 {
        fill: url(#radial-gradient-13);
      }

      .cls-45 {
        fill: url(#radial-gradient-69);
      }

      .cls-46 {
        fill: url(#radial-gradient-74);
      }

      .cls-47 {
        fill: url(#radial-gradient-43);
      }

      .cls-48 {
        fill: url(#radial-gradient-30);
      }

      .cls-49 {
        fill: url(#radial-gradient-66);
      }

      .cls-50 {
        fill: url(#radial-gradient-51);
      }

      .cls-51 {
        fill: url(#radial-gradient-61);
      }

      .cls-52 {
        fill: url(#radial-gradient-24);
      }

      .cls-53 {
        fill: url(#radial-gradient-58);
      }

      .cls-54 {
        fill: url(#radial-gradient-15);
      }

      .cls-55 {
        clip-path: url(#clippath);
      }

      .cls-56 {
        fill: url(#radial-gradient-2);
      }

      .cls-57 {
        fill: none;
      }

      .cls-58 {
        fill: url(#radial-gradient-38);
      }

      .cls-59 {
        fill: url(#radial-gradient-3);
      }

      .cls-60 {
        fill: url(#radial-gradient-56);
      }

      .cls-61 {
        fill: url(#radial-gradient-42);
      }

      .cls-62 {
        fill: url(#radial-gradient-53);
      }

      .cls-63 {
        fill: url(#radial-gradient-45);
      }

      .cls-64 {
        fill: url(#radial-gradient-17);
      }

      .cls-65 {
        fill: url(#radial-gradient-33);
      }

      .cls-66 {
        fill: url(#radial-gradient-14);
      }

      .cls-67 {
        fill: url(#radial-gradient-37);
      }

      .cls-68 {
        fill: url(#radial-gradient-71);
      }

      .cls-69 {
        fill: url(#linear-gradient);
      }

      .cls-70 {
        fill: url(#radial-gradient-29);
      }

      .cls-71 {
        fill: url(#radial-gradient-62);
      }

      .cls-72 {
        fill: url(#radial-gradient-59);
      }

      .cls-73 {
        fill: url(#radial-gradient-23);
      }

      .cls-74 {
        fill: url(#radial-gradient-63);
      }

      .cls-75 {
        fill: url(#radial-gradient-36);
      }

      .cls-76 {
        fill: url(#radial-gradient-70);
      }

      .cls-77 {
        fill: url(#radial-gradient-11);
      }

      .cls-78 {
        fill: url(#radial-gradient-18);
      }

      .cls-79 {
        fill: url(#radial-gradient-9);
      }

      .cls-80 {
        fill: url(#radial-gradient-73);
      }

      .cls-81 {
        fill: url(#radial-gradient-44);
      }
    </style>
    <clipPath id="clippath">
      <rect class="cls-57" width="437.91" height="602.04"/>
    </clipPath>
    <linearGradient id="linear-gradient" x1="936.21" y1="-1486.88" x2="1091.55" y2="-1548.43" gradientTransform="translate(-1593.49 498.67) rotate(50.69)" gradientUnits="userSpaceOnUse">
      <stop offset="0" stop-color="#0085e6"/>
      <stop offset=".13" stop-color="#007fde" stop-opacity=".96"/>
      <stop offset=".38" stop-color="#0071ca" stop-opacity=".84"/>
      <stop offset=".72" stop-color="#005ba9" stop-opacity=".66"/>
      <stop offset="1" stop-color="#00478c" stop-opacity=".49"/>
    </linearGradient>
    <filter id="outer-glow-7" filterUnits="userSpaceOnUse">
      <feOffset dx="0" dy="0"/>
      <feGaussianBlur result="blur" stdDeviation="3.07"/>
      <feFlood flood-color="#00f2ff" flood-opacity=".7"/>
      <feComposite in2="blur" operator="in"/>
      <feComposite in="SourceGraphic"/>
    </filter>
    <radialGradient id="radial-gradient" cx="3201.69" cy="-8839.4" fx="3201.69" fy="-8839.4" r="6.91" gradientTransform="translate(616.93 9621.74) rotate(-21.99)" gradientUnits="userSpaceOnUse">
      <stop offset=".19" stop-color="aqua"/>
      <stop offset=".4" stop-color="#00fcfd" stop-opacity=".99"/>
      <stop offset=".51" stop-color="#02f4f7" stop-opacity=".96"/>
      <stop offset=".6" stop-color="#05e7ee" stop-opacity=".91"/>
      <stop offset=".68" stop-color="#0ad4e1" stop-opacity=".83"/>
      <stop offset=".74" stop-color="#10bbcf" stop-opacity=".74"/>
      <stop offset=".81" stop-color="#179cba" stop-opacity=".62"/>
      <stop offset=".86" stop-color="#2078a1" stop-opacity=".47"/>
      <stop offset=".92" stop-color="#2a4e83" stop-opacity=".31"/>
      <stop offset=".97" stop-color="#351f63" stop-opacity=".13"/>
      <stop offset="1" stop-color="#3d004d" stop-opacity="0"/>
    </radialGradient>
    <radialGradient id="radial-gradient-2" cx="3257.21" cy="-8650.33" fx="3257.21" fy="-8650.33" r="2.16" xlink:href="#radial-gradient"/>
    <radialGradient id="radial-gradient-3" cx="3284.81" cy="-8611.42" fx="3284.81" fy="-8611.42" r="4.63" xlink:href="#radial-gradient"/>
    <radialGradient id="radial-gradient-4" cx="3144.23" cy="-8668.08" fx="3144.23" fy="-8668.08" r="7.12" xlink:href="#radial-gradient"/>
    <radialGradient id="radial-gradient-5" cx="3150.03" cy="-8576.88" fx="3150.03" fy="-8576.88" r="2.37" xlink:href="#radial-gradient"/>
    <radialGradient id="radial-gradient-6" cx="2985.56" cy="-8588.48" fx="2985.56" fy="-8588.48" r="3.73" xlink:href="#radial-gradient"/>
    <radialGradient id="radial-gradient-7" cx="3084.66" cy="-8494.65" fx="3084.66" fy="-8494.65" r="2.74" xlink:href="#radial-gradient"/>
    <radialGradient id="radial-gradient-8" cx="2849.03" cy="-8695.49" fx="2849.03" fy="-8695.49" r="2.83" xlink:href="#radial-gradient"/>
    <radialGradient id="radial-gradient-9" cx="2949.71" cy="-8777.2" fx="2949.71" fy="-8777.2" r="1.48" xlink:href="#radial-gradient"/>
    <radialGradient id="radial-gradient-10" cx="2998.21" cy="-8735.03" fx="2998.21" fy="-8735.03" r="3" xlink:href="#radial-gradient"/>
    <radialGradient id="radial-gradient-11" cx="3075.7" cy="-8743.99" fx="3075.7" fy="-8743.99" r="3.1" xlink:href="#radial-gradient"/>
    <radialGradient id="radial-gradient-12" cx="3112.61" cy="-8915.84" fx="3112.61" fy="-8915.84" r="3.65" xlink:href="#radial-gradient"/>
    <radialGradient id="radial-gradient-13" cx="3132.8" cy="-8800.78" fx="3132.8" fy="-8800.78" r="4.3" xlink:href="#radial-gradient"/>
    <radialGradient id="radial-gradient-14" cx="3156.36" cy="-8843.62" fx="3156.36" fy="-8843.62" r="2.97" xlink:href="#radial-gradient"/>
    <radialGradient id="radial-gradient-15" cx="3270.66" cy="-8726.23" fx="3270.66" fy="-8726.23" r="2.35" xlink:href="#radial-gradient"/>
    <radialGradient id="radial-gradient-16" cx="3306.59" cy="-8667.02" fx="3306.59" fy="-8667.02" r="2.35" xlink:href="#radial-gradient"/>
    <radialGradient id="radial-gradient-17" cx="3065.68" cy="-8663.33" fx="3065.68" fy="-8663.33" r="3.11" xlink:href="#radial-gradient"/>
    <radialGradient id="radial-gradient-18" cx="3140.11" cy="-8506.4" fx="3140.11" fy="-8506.4" r="2.42" xlink:href="#radial-gradient"/>
    <radialGradient id="radial-gradient-19" cx="3316.61" cy="-8749.78" fx="3316.61" fy="-8749.78" r="1.85" xlink:href="#radial-gradient"/>
    <radialGradient id="radial-gradient-20" cx="3251.77" cy="-8817.78" fx="3251.77" fy="-8817.78" r="1.8" xlink:href="#radial-gradient"/>
    <radialGradient id="radial-gradient-21" cx="3288.15" cy="-8913.2" fx="3288.15" fy="-8913.2" r="2.1" xlink:href="#radial-gradient"/>
    <radialGradient id="radial-gradient-22" cx="3238.59" cy="-8956.42" fx="3238.59" fy="-8956.42" r="1.17" xlink:href="#radial-gradient"/>
    <radialGradient id="radial-gradient-23" cx="3414.66" cy="-8950.09" fx="3414.66" fy="-8950.09" r="2.33" xlink:href="#radial-gradient"/>
    <radialGradient id="radial-gradient-24" cx="3247.21" cy="-8715.44" fx="3247.21" fy="-8715.44" r=".83" xlink:href="#radial-gradient"/>
    <radialGradient id="radial-gradient-25" cx="3235.56" cy="-8710.09" fx="3235.56" fy="-8710.09" r=".98" xlink:href="#radial-gradient"/>
    <radialGradient id="radial-gradient-26" cx="3241.47" cy="-8731.07" fx="3241.47" fy="-8731.07" r=".6" xlink:href="#radial-gradient"/>
    <radialGradient id="radial-gradient-27" cx="3236.54" cy="-8744.49" fx="3236.54" fy="-8744.49" r=".81" xlink:href="#radial-gradient"/>
    <radialGradient id="radial-gradient-28" cx="3224.92" cy="-8750.71" fx="3224.92" fy="-8750.71" r=".68" xlink:href="#radial-gradient"/>
    <radialGradient id="radial-gradient-29" cx="3214.87" cy="-8700.51" fx="3214.87" fy="-8700.51" r="1.3" xlink:href="#radial-gradient"/>
    <radialGradient id="radial-gradient-30" cx="3219.06" cy="-8656.32" fx="3219.06" fy="-8656.32" r="1.02" xlink:href="#radial-gradient"/>
    <radialGradient id="radial-gradient-31" cx="3220.89" cy="-8636.98" fx="3220.89" fy="-8636.98" r="1.28" xlink:href="#radial-gradient"/>
    <radialGradient id="radial-gradient-32" cx="3250.96" cy="-8651.31" fx="3250.96" fy="-8651.31" r=".57" xlink:href="#radial-gradient"/>
    <radialGradient id="radial-gradient-33" cx="3258.64" cy="-8621.97" fx="3258.64" fy="-8621.97" r=".73" xlink:href="#radial-gradient"/>
    <radialGradient id="radial-gradient-34" cx="3224.04" cy="-8603.84" fx="3224.04" fy="-8603.84" r=".88" xlink:href="#radial-gradient"/>
    <radialGradient id="radial-gradient-35" cx="3225.66" cy="-8586.79" fx="3225.66" fy="-8586.79" r="1.4" xlink:href="#radial-gradient"/>
    <radialGradient id="radial-gradient-36" cx="3245.92" cy="-8586.23" fx="3245.92" fy="-8586.23" r=".85" xlink:href="#radial-gradient"/>
    <radialGradient id="radial-gradient-37" cx="3262.77" cy="-8606.22" fx="3262.77" fy="-8606.22" r="1.08" xlink:href="#radial-gradient"/>
    <radialGradient id="radial-gradient-38" cx="3229.1" cy="-8550.52" fx="3229.1" fy="-8550.52" r="1.46" xlink:href="#radial-gradient"/>
    <radialGradient id="radial-gradient-39" cx="3148.15" cy="-8606.4" fx="3148.15" fy="-8606.4" r=".76" xlink:href="#radial-gradient"/>
    <radialGradient id="radial-gradient-40" cx="3131.74" cy="-8631.72" fx="3131.74" fy="-8631.72" r=".79" xlink:href="#radial-gradient"/>
    <radialGradient id="radial-gradient-41" cx="3127.86" cy="-8620.41" fx="3127.86" fy="-8620.41" r=".86" xlink:href="#radial-gradient"/>
    <radialGradient id="radial-gradient-42" cx="3147" cy="-8624.42" fx="3147" fy="-8624.42" r="1.15" xlink:href="#radial-gradient"/>
    <radialGradient id="radial-gradient-43" cx="3101.04" cy="-8646.41" fx="3101.04" fy="-8646.41" r="1.1" xlink:href="#radial-gradient"/>
    <radialGradient id="radial-gradient-44" cx="3094.76" cy="-8643.26" fx="3094.76" fy="-8643.26" r=".87" xlink:href="#radial-gradient"/>
    <radialGradient id="radial-gradient-45" cx="3078.9" cy="-8635.31" fx="3078.9" fy="-8635.31" r="1.13" xlink:href="#radial-gradient"/>
    <radialGradient id="radial-gradient-46" cx="3116.23" cy="-8666.39" fx="3116.23" fy="-8666.39" r="1.04" xlink:href="#radial-gradient"/>
    <radialGradient id="radial-gradient-47" cx="3114.21" cy="-8701.33" fx="3114.21" fy="-8701.33" r=".98" xlink:href="#radial-gradient"/>
    <radialGradient id="radial-gradient-48" cx="3143.81" cy="-8794.13" fx="3143.81" fy="-8794.13" r="1.19" xlink:href="#radial-gradient"/>
    <radialGradient id="radial-gradient-49" cx="3156.88" cy="-8814.28" fx="3156.88" fy="-8814.28" r="1.03" xlink:href="#radial-gradient"/>
    <radialGradient id="radial-gradient-50" cx="3151.05" cy="-8811.01" fx="3151.05" fy="-8811.01" r=".78" xlink:href="#radial-gradient"/>
    <radialGradient id="radial-gradient-51" cx="3057.85" cy="-8796.97" fx="3057.85" fy="-8796.97" r=".91" xlink:href="#radial-gradient"/>
    <radialGradient id="radial-gradient-52" cx="3009.37" cy="-8729.91" fx="3009.37" fy="-8729.91" r="1.04" xlink:href="#radial-gradient"/>
    <radialGradient id="radial-gradient-53" cx="2958.58" cy="-8724.52" fx="2958.58" fy="-8724.52" r=".88" xlink:href="#radial-gradient"/>
    <radialGradient id="radial-gradient-54" cx="2993.29" cy="-8678.08" fx="2993.29" fy="-8678.08" r=".87" xlink:href="#radial-gradient"/>
    <radialGradient id="radial-gradient-55" cx="3006.86" cy="-8599.16" fx="3006.86" fy="-8599.16" r="1.22" xlink:href="#radial-gradient"/>
    <radialGradient id="radial-gradient-56" cx="2978.73" cy="-8571.62" fx="2978.73" fy="-8571.62" r="1.4" xlink:href="#radial-gradient"/>
    <radialGradient id="radial-gradient-57" cx="3006.22" cy="-8550.45" fx="3006.22" fy="-8550.45" r="1.39" xlink:href="#radial-gradient"/>
    <radialGradient id="radial-gradient-58" cx="3011.13" cy="-8564.26" fx="3011.13" fy="-8564.26" r=".9" xlink:href="#radial-gradient"/>
    <radialGradient id="radial-gradient-59" cx="2949.44" cy="-8616.79" fx="2949.44" fy="-8616.79" r="1.48" xlink:href="#radial-gradient"/>
    <radialGradient id="radial-gradient-60" cx="3110.18" cy="-8568.96" fx="3110.18" fy="-8568.96" r="1.39" xlink:href="#radial-gradient"/>
    <radialGradient id="radial-gradient-61" cx="3114.99" cy="-8558.77" fx="3114.99" fy="-8558.77" r=".86" xlink:href="#radial-gradient"/>
    <radialGradient id="radial-gradient-62" cx="3060.35" cy="-8517.66" fx="3060.35" fy="-8517.66" r="1.19" xlink:href="#radial-gradient"/>
    <radialGradient id="radial-gradient-63" cx="3180.01" cy="-8774.75" fx="3180.01" fy="-8774.75" r="1.91" xlink:href="#radial-gradient"/>
    <radialGradient id="radial-gradient-64" cx="3209.31" cy="-8759.07" fx="3209.31" fy="-8759.07" r=".95" xlink:href="#radial-gradient"/>
    <radialGradient id="radial-gradient-65" cx="3210.68" cy="-8805.08" fx="3210.68" fy="-8805.08" r=".74" xlink:href="#radial-gradient"/>
    <radialGradient id="radial-gradient-66" cx="3223.38" cy="-8803.81" fx="3223.38" fy="-8803.81" r="1.34" xlink:href="#radial-gradient"/>
    <radialGradient id="radial-gradient-67" cx="3185.69" cy="-8791.69" fx="3185.69" fy="-8791.69" r="1.13" xlink:href="#radial-gradient"/>
    <radialGradient id="radial-gradient-68" cx="3247.46" cy="-8863.19" fx="3247.46" fy="-8863.19" r="1.64" xlink:href="#radial-gradient"/>
    <radialGradient id="radial-gradient-69" cx="3246.11" cy="-8877.35" fx="3246.11" fy="-8877.35" r=".79" xlink:href="#radial-gradient"/>
    <radialGradient id="radial-gradient-70" cx="3144.9" cy="-8887.51" fx="3144.9" fy="-8887.51" r="1.49" xlink:href="#radial-gradient"/>
    <radialGradient id="radial-gradient-71" cx="3138.04" cy="-8873.28" fx="3138.04" fy="-8873.28" r="1.38" xlink:href="#radial-gradient"/>
    <radialGradient id="radial-gradient-72" cx="3124.12" cy="-8844.79" fx="3124.12" fy="-8844.79" r="1.75" xlink:href="#radial-gradient"/>
    <radialGradient id="radial-gradient-73" cx="3104.04" cy="-8802.77" fx="3104.04" fy="-8802.77" r="1.41" xlink:href="#radial-gradient"/>
    <radialGradient id="radial-gradient-74" cx="3091.1" cy="-8775.92" fx="3091.1" fy="-8775.92" r=".94" xlink:href="#radial-gradient"/>
    <radialGradient id="radial-gradient-75" cx="3329.24" cy="-8880.71" fx="3329.24" fy="-8880.71" r="1.15" xlink:href="#radial-gradient"/>
    <radialGradient id="radial-gradient-76" cx="3374.75" cy="-8938.45" fx="3374.75" fy="-8938.45" r="1.07" xlink:href="#radial-gradient"/>
  </defs>
  <g class="cls-20">
    <g id="Layer_6" data-name="Layer 6">
      <g class="cls-55">
        <g>
          <path class="cls-69" d="m287.52,637.94l.52-.23-.4-.33,9.26-46.12.17.07-.04-.73.07-.36-.09-.04-4.07-76.88,51.67,47.78-.08-.32,71.57,51.13.59-.83-72.55-51.82-17.16-68.96,82.24-5.11.13.26.36-.29,3.43-.21-2.46-.55,35.62-28.21,4.2.26-4.05-1.23-35.26-47.36,27.79-.02,3.02,1.9-2.37-2.62-1.36-59.51h0s-5.78-302.68-5.78-302.68l2.29-1.81-1.7.62,1.77-3.21-3.18,3.72-165.32,59.94-1.04-.36,37.06,71.44-26.52,50.9-.49-.54.04.7-69.58-22.98-.44,1.1-.59-1.02.03-.42-40.13-13.26-2.07-1.52,39.06,62.81-7.23,110.36.3.35h0l-.68.78-67.74,36.91-60.96-21.01L2.44,492.22l-.73.55,167.27,48.28-.1,149.38,118.11-52.26.41.34.12-.58Zm-92.66-274.64l89.49,43.53-156.15-7.21,66.66-36.32Zm32.15-74.4l48.5-60.47,3.98,66.15-52.48-5.67Zm4.77-48.52l-6.08,47.43-23.01-37,1.99-30.35,27.1,19.91Zm1.01.16l41.72-12.5-47.75,59.52,6.03-47.03Zm165.88,140.74l-4.93-23.31,42.5,46.95-37.57-23.65Zm-1.06-.07l-5.36,1.24-35.82-48.12,8.12-8.61,27.83,30.74,5.23,24.75Zm-5.74,70.55l-85.82-5.37-18.29-38.12,96.73,29.28,7.37,14.21Zm-6-13.8l55.89,16.92-48.7-3.05-7.19-13.87Zm-56.3-137.99l-16.16-1.75-34.11-65.78,50.27,67.53Zm-46.85-64.64l59.78,66.04-11.54-1.25-48.24-64.79Zm47.68,65.76l24.69,33.16-14.84,15.74-26.28-50.68,16.43,1.78Zm1.39.15l11.74,1.27,20.32,22.45-8.05,8.54-24.01-32.25Zm13.27,1.43l36.11,3.9-16.62,17.63-19.49-21.53Zm-1.03-1.14l-64.21-70.94,100.63,74.87-36.41-3.94Zm-31.84-3.44l-31.67-3.42-3.93-65.22,35.6,68.65Zm.57,1.09l26.76,51.6-52.26,55.43v-.06s-.01,0-.01,0l-6.66-110.46,32.17,3.48Zm-47.93,133.99l21.54-24.46,1.94,36.56-32.35-2.03,8.87-10.08Zm22.63-23.21l17.43,36.34-15.56-.97-1.87-35.37Zm52.56-58.22l19.82,38.23-71.49,16.59,51.67-54.81Zm-71.36,75.53l-13.99,15.89-36.9-2.31,67.02-31.89-16.12,18.31Zm-14.85,16.86l-3.76,4.27-27.87-6.25,31.63,1.98Zm-4.53,5.14l-10.81,12.27-20.97-19.39,31.78,7.12Zm1.14.25l38.57,8.64,2.79,52.68-52.56-48.61,11.2-12.71Zm.77-.88l3.91-4.44,33.26,2.08.57,10.81-37.74-8.46Zm38.2-2.29l16.01,1,7.22,15.06-22.65-5.08-.58-10.98Zm.87-38.42l78.87-.06,14.72,28.39-93.59-28.33Zm1.03-1.02l69.03-16.02,8.28,15.96-77.31.05Zm70.06-16.25l30.48-7.07,17.31,23.24-39.39.03-8.4-16.2Zm-.49-.94l-20.11-38.78,14.96-15.87,35.45,47.62-30.3,7.03Zm4.39-64.76l16.71-17.73,9.99,47.23-26.7-29.5Zm-87.71-97.35l52.81,1.25,84.86,38.45-33.03,38.16-104.65-77.87Zm53.65.5l100.1-181.15-15.7,219.39-84.41-38.24Zm-.7-.85l-20.4-39.33,119-139.11-98.6,178.43Zm-.87.55l-52.58-1.24,32.33-37.79,20.25,39.04Zm-50.06,67.76l6.59,109.45-59.23-115.14,52.64,5.69Zm5.18,112.26l-69.05,32.85-1.68-.38.84.78-1.1.52,1.79.11,22.25,20.58-68.08,77.3-42.65-139.05,157.69,7.28Zm-112.44,134.45l123.62,48.56-9.19,45.76-114.44-94.32Zm123.66,47.48l-125.6-49.34,68.19-77.42,53.31,49.3,4.1,77.46Zm46.82-31.76l-49.92-46.17-2.83-53.44,23.16,5.19,12.66,26.4,16.93,68.02Zm-16.13-68.73l-12.19-25.41,91.44,20.49-79.25,4.92Zm-12.75-26.59l-7.32-15.27,85.86,5.37,16.13,31.11-94.66-21.21Zm95.79,21.16l-16.07-30.98,51.15,3.2-35.08,27.78Zm35.11-29.15l-59.57-18.03-14.93-28.8,39.62-.03,34.89,46.86Zm-34.37-47.88l-17.49-23.5,5.2-1.21,39.22,24.68-26.93.02Zm-17.1-50.86l-10.28-48.57,54.2,40.48,1.33,58.08-45.25-49.99Zm43.9-9.38l-54.19-40.48.31-.33h-.05s33.59-38.83,33.59-38.83l-.3-.14,15.08-210.82,5.55,290.6Zm-8.06-300.33l-100.78,79.44-60.5-20.96,161.28-58.48Zm-161.77,59.39l60.36,20.91-24.81,47.61-35.55-68.53Zm61.49,20.96l99.31-78.28-118.61,138.65-6.06-11.69,25.37-48.67Zm-20.02,61.2l-30.39,35.52,24.46-46.94,5.92,11.42Zm-34.62,39.24l-41.81,12.52-27.66-20.33.97-14.82,68.5,22.63Zm-69.51-22.96l-.95,14.44-36.46-26.79,37.4,12.35Zm-38.47-11.87l37.44,27.51-1.94,29.57-35.5-57.09Zm59.32,97.32l60.07,116.76-90.27-43.9,7.2-109.85,23,36.99Zm-100.31,110.66L4.43,490.72l61.4-110.99,59.44,20.49Zm.8.67l42.61,138.91-2.01-.79.58.48L3.96,492.35l122.11-91.46Zm43.82,287.97l.1-147.11,28.04,23.11,88.06,72.58-116.21,51.41Z"/>
          <g class="cls-42">
            <path class="cls-40" d="m282.3,229.79c-1.49,3.51-5.54,5.15-9.05,3.66-3.51-1.49-5.15-5.54-3.66-9.05,1.49-3.51,5.54-5.15,9.05-3.66,3.51,1.49,5.15,5.54,3.66,9.05Z"/>
            <path class="cls-56" d="m400.21,382.45c-.47,1.1-1.74,1.61-2.84,1.15s-1.61-1.74-1.15-2.84c.47-1.1,1.74-1.61,2.84-1.15,1.1.47,1.61,1.74,1.15,2.84Z"/>
            <path class="cls-59" d="m442.63,409.16c-1,2.35-3.72,3.45-6.08,2.45-2.36-1-3.45-3.72-2.45-6.08,1-2.36,3.72-3.45,6.08-2.45,2.36,1,3.45,3.72,2.45,6.08Z"/>
            <path class="cls-19" d="m293.36,410.24c-1.54,3.62-5.71,5.3-9.33,3.77-3.62-1.54-5.3-5.71-3.77-9.33,1.54-3.62,5.71-5.3,9.33-3.77,3.62,1.54,5.3,5.71,3.77,9.33Z"/>
            <path class="cls-18" d="m328.51,490.77c-.51,1.2-1.9,1.76-3.11,1.25-1.2-.51-1.77-1.9-1.25-3.11.51-1.2,1.9-1.77,3.11-1.25,1.2.51,1.76,1.9,1.25,3.11Z"/>
            <path class="cls-32" d="m172.92,542.12c-.8,1.89-2.99,2.78-4.89,1.97-1.89-.8-2.78-2.99-1.97-4.89.8-1.89,2.99-2.78,4.89-1.97,1.89.8,2.78,2.99,1.97,4.89Z"/>
            <path class="cls-3" d="m299.03,591.64c-.59,1.39-2.2,2.04-3.6,1.45-1.39-.59-2.04-2.2-1.45-3.6.59-1.39,2.2-2.04,3.6-1.45,1.39.59,2.04,2.2,1.45,3.6Z"/>
            <path class="cls-17" d="m5.44,493.67c-.61,1.44-2.27,2.11-3.71,1.5-1.44-.61-2.11-2.27-1.5-3.71.61-1.44,2.27-2.11,3.71-1.5,1.44.61,2.11,2.27,1.5,3.71Z"/>
            <path class="cls-79" d="m66.96,379.68c-.32.75-1.19,1.1-1.94.78-.75-.32-1.1-1.19-.78-1.94.32-.75,1.19-1.1,1.94-.78.75.32,1.1,1.19.78,1.94Z"/>
            <path class="cls-5" d="m129.11,401.22c-.65,1.52-2.41,2.23-3.93,1.59-1.52-.65-2.23-2.41-1.59-3.93.65-1.52,2.41-2.23,3.93-1.59,1.52.65,2.23,2.41,1.59,3.93Z"/>
            <path class="cls-77" d="m197.7,363.94c-.67,1.57-2.49,2.31-4.06,1.64-1.57-.67-2.31-2.49-1.64-4.06.67-1.57,2.49-2.31,4.06-1.64,1.57.67,2.31,2.49,1.64,4.06Z"/>
            <path class="cls-35" d="m168.08,191c-.79,1.85-2.93,2.72-4.78,1.93-1.85-.79-2.72-2.93-1.93-4.78.79-1.85,2.93-2.72,4.78-1.93,1.85.79,2.72,2.93,1.93,4.78Z"/>
            <path class="cls-44" d="m230.48,290.37c-.93,2.19-3.45,3.21-5.64,2.28-2.19-.93-3.21-3.45-2.28-5.64.93-2.19,3.45-3.21,5.64-2.28,2.19.93,3.21,3.45,2.28,5.64Z"/>
            <path class="cls-66" d="m235.06,241.32c-.64,1.51-2.39,2.22-3.9,1.57-1.51-.64-2.22-2.39-1.57-3.9.64-1.51,2.39-2.22,3.9-1.57,1.51.64,2.22,2.39,1.57,3.9Z"/>
            <path class="cls-54" d="m384.42,307.12c-.51,1.19-1.88,1.75-3.08,1.24-1.19-.51-1.75-1.88-1.24-3.08.51-1.19,1.88-1.75,3.08-1.24,1.19.51,1.75,1.88,1.24,3.08Z"/>
            <path class="cls-12" d="m439.9,348.56c-.51,1.19-1.88,1.75-3.08,1.24-1.19-.51-1.75-1.88-1.24-3.08.51-1.19,1.88-1.75,3.08-1.24,1.19.51,1.75,1.88,1.24,3.08Z"/>
            <path class="cls-64" d="m218.62,442.48c-.67,1.58-2.5,2.32-4.08,1.65-1.58-.67-2.32-2.5-1.65-4.08.67-1.58,2.5-2.32,4.08-1.65,1.58.67,2.32,2.5,1.65,4.08Z"/>
            <path class="cls-78" d="m345.74,559.85c-.52,1.23-1.94,1.8-3.17,1.28-1.23-.52-1.8-1.94-1.28-3.17.52-1.23,1.94-1.8,3.17-1.28,1.23.52,1.8,1.94,1.28,3.17Z"/>
            <path class="cls-33" d="m417.75,267.88c-.4.94-1.49,1.38-2.43.98-.94-.4-1.38-1.49-.98-2.43.4-.94,1.49-1.38,2.43-.98.94.4,1.38,1.49.98,2.43Z"/>
            <path class="cls-15" d="m332.13,229.09c-.39.92-1.45,1.34-2.36.95-.92-.39-1.34-1.45-.95-2.36.39-.92,1.45-1.34,2.36-.95.92.39,1.34,1.45.95,2.36Z"/>
            <path class="cls-16" d="m330.4,127.12c-.45,1.07-1.69,1.57-2.76,1.11-1.07-.45-1.57-1.69-1.11-2.76.45-1.07,1.69-1.57,2.76-1.11,1.07.45,1.57,1.69,1.11,2.76Z"/>
            <path class="cls-31" d="m267.86,105.41s-.68-.29-1.52-.65c-.84-.36-1.52-.65-1.52-.65,0,0,.68.29,1.52.65.84.36,1.52.65,1.52.65Z"/>
            <path class="cls-73" d="m434.1,45.62c-.5,1.18-1.87,1.73-3.05,1.23-1.18-.5-1.73-1.87-1.23-3.05.5-1.18,1.87-1.73,3.05-1.23,1.18.5,1.73,1.87,1.23,3.05Z"/>
            <path class="cls-52" d="m365.32,324.67c.17.42-.03.91-.46,1.08-.42.17-.91-.03-1.08-.46-.17-.42.03-.91.46-1.08.42-.17.91.03,1.08.46Z"/>
            <path class="cls-29" d="m356.67,333.94c.2.5-.04,1.08-.54,1.28-.5.2-1.08-.04-1.28-.54-.2-.5.04-1.08.54-1.28.5-.2,1.08.04,1.28.54Z"/>
            <path class="cls-30" d="m353.94,312.41c.12.31-.02.66-.33.78s-.66-.02-.78-.33c-.12-.31.02-.66.33-.78.31-.12.66.02.78.33Z"/>
            <path class="cls-43" d="m344.53,301.74c.17.41-.03.88-.45,1.05-.41.17-.88-.03-1.05-.45-.17-.41.03-.88.45-1.05.41-.17.88.03,1.05.45Z"/>
            <path class="cls-10" d="m331.32,300.37c.14.35-.03.75-.38.89-.35.14-.75-.03-.89-.38-.14-.35.03-.75.38-.89.35-.14.75.03.89.38Z"/>
            <path class="cls-70" d="m341.37,350.44c.27.67-.05,1.43-.72,1.7-.67.27-1.43-.05-1.7-.72-.27-.67.05-1.43.72-1.7.67-.27,1.43.05,1.7.72Z"/>
            <path class="cls-48" d="m361.54,389.96c.21.52-.04,1.11-.56,1.32-.52.21-1.11-.04-1.32-.56-.21-.52.04-1.11.56-1.32.52-.21,1.11.04,1.32.56Z"/>
            <path class="cls-8" d="m370.72,407.1c.26.65-.05,1.4-.71,1.66s-1.4-.05-1.66-.71c-.26-.65.05-1.4.71-1.66.65-.26,1.4.05,1.66.71Z"/>
            <path class="cls-25" d="m392.57,382.83c.12.29-.02.62-.31.74-.29.12-.62-.02-.74-.31-.12-.29.02-.62.31-.74.29-.12.62.02.74.31Z"/>
            <path class="cls-65" d="m410.84,407.09c.15.38-.03.8-.41.96-.38.15-.8-.03-.96-.41-.15-.38.03-.8.41-.96.38-.15.8.03.96.41Z"/>
            <path class="cls-4" d="m385.68,436.81c.18.45-.04.97-.49,1.15-.45.18-.97-.04-1.15-.49-.18-.45.04-.97.49-1.15.45-.18.97.04,1.15.49Z"/>
            <path class="cls-39" d="m394.05,451.81c.29.72-.06,1.54-.78,1.83-.72.29-1.54-.06-1.83-.78-.29-.72.06-1.54.78-1.83.72-.29,1.54.06,1.83.78Z"/>
            <path class="cls-75" d="m412.52,444.95c.18.43-.03.93-.47,1.1-.43.18-.93-.03-1.1-.47-.18-.43.03-.93.47-1.1.43-.18.93.03,1.1.47Z"/>
            <path class="cls-67" d="m420.88,420.02c.22.55-.04,1.18-.6,1.41-.55.22-1.18-.04-1.41-.6s.04-1.18.6-1.41,1.18.04,1.41.6Z"/>
            <path class="cls-58" d="m410.86,484.13c.3.75-.06,1.59-.8,1.89-.75.3-1.59-.06-1.89-.8-.3-.75.06-1.59.8-1.89.75-.3,1.59.06,1.89.8Z"/>
            <path class="cls-1" d="m314.24,462.88c.16.39-.03.83-.42.99-.39.16-.83-.03-.99-.42-.16-.39.03-.83.42-.99.39-.16.83.03.99.42Z"/>
            <path class="cls-23" d="m289.57,445.54c.16.4-.03.86-.43,1.02-.4.16-.86-.03-1.02-.43-.16-.4.03-.86.43-1.02.4-.16.86.03,1.02.43Z"/>
            <path class="cls-38" d="m290.27,457.46c.18.44-.03.94-.47,1.11-.44.18-.94-.03-1.11-.47-.18-.44.03-.94.47-1.11s.94.03,1.11.47Z"/>
            <path class="cls-61" d="m306.79,446.46c.24.59-.05,1.25-.63,1.49-.59.24-1.25-.05-1.49-.63-.24-.59.05-1.25.63-1.49.59-.24,1.25.05,1.49.63Z"/>
            <path class="cls-47" d="m255.9,443.3c.23.56-.04,1.21-.61,1.43-.56.23-1.21-.04-1.43-.61-.23-.56.04-1.21.61-1.43.56-.23,1.21.04,1.43.61Z"/>
            <path class="cls-81" d="m251.03,448.66c.18.44-.04.95-.48,1.13-.44.18-.95-.04-1.13-.48-.18-.44.04-.95.48-1.13.44-.18.95.04,1.13.48Z"/>
            <path class="cls-63" d="m239.55,461.88c.23.58-.05,1.23-.62,1.47-.58.23-1.23-.05-1.47-.62-.23-.58.05-1.23.62-1.47.58-.23,1.23.05,1.47.62Z"/>
            <path class="cls-2" d="m262.44,419.12c.22.53-.04,1.14-.57,1.35s-1.14-.04-1.35-.57c-.22-.53.04-1.14.57-1.35.53-.22,1.14.04,1.35.57Z"/>
            <path class="cls-6" d="m247.43,387.5c.2.5-.04,1.07-.54,1.27s-1.07-.04-1.27-.54c-.2-.5.04-1.07.54-1.27.5-.2,1.07.04,1.27.54Z"/>
            <path class="cls-7" d="m240.33,290.29c.25.61-.05,1.3-.66,1.55-.61.25-1.3-.05-1.55-.66-.25-.61.05-1.3.66-1.55.61-.25,1.3.05,1.55.66Z"/>
            <path class="cls-37" d="m244.75,266.77c.21.53-.04,1.13-.57,1.34-.53.21-1.13-.04-1.34-.57-.21-.53.04-1.13.57-1.34.53-.21,1.13.04,1.34.57Z"/>
            <path class="cls-14" d="m240.34,272.08c.16.4-.03.86-.43,1.02-.4.16-.86-.03-1.02-.43-.16-.4.03-.86.43-1.02.4-.16.86.03,1.02.43Z"/>
            <path class="cls-50" d="m159.3,319.94c.19.47-.04,1-.51,1.19-.47.19-1-.04-1.19-.51-.19-.47.04-1,.51-1.19.47-.19,1,.04,1.19.51Z"/>
            <path class="cls-26" d="m139.58,400.22c.22.53-.04,1.14-.58,1.36s-1.14-.04-1.36-.58c-.22-.53.04-1.14.58-1.36s1.14.04,1.36.58Z"/>
            <path class="cls-62" d="m94.35,424.3c.18.45-.04.96-.48,1.14-.45.18-.96-.04-1.14-.48-.18-.45.04-.96.48-1.14.45-.18.96.04,1.14.48Z"/>
            <path class="cls-27" d="m143.92,454.36c.18.45-.04.95-.48,1.13-.45.18-.95-.04-1.13-.48-.18-.45.04-.95.48-1.13.45-.18.95.04,1.13.48Z"/>
            <path class="cls-36" d="m186.37,522.33c.25.63-.05,1.34-.68,1.59-.63.25-1.34-.05-1.59-.68-.25-.63.05-1.34.68-1.59.63-.25,1.34.05,1.59.68Z"/>
            <path class="cls-60" d="m170.78,558.33c.29.72-.06,1.54-.78,1.83-.72.29-1.54-.06-1.83-.78-.29-.72.06-1.54.78-1.83.72-.29,1.54.06,1.83.78Z"/>
            <path class="cls-13" d="m204.18,567.67c.29.71-.06,1.53-.77,1.81s-1.53-.06-1.81-.77.06-1.53.77-1.81c.71-.29,1.53.06,1.81.77Z"/>
            <path class="cls-53" d="m203.11,553.21c.19.46-.04.99-.5,1.17s-.99-.04-1.17-.5c-.19-.46.04-.99.5-1.17.46-.19.99.04,1.17.5Z"/>
            <path class="cls-72" d="m126.77,527.39c.31.76-.06,1.62-.82,1.92-.76.31-1.62-.06-1.92-.82-.31-.76.06-1.62.82-1.92.76-.31,1.62.06,1.92.82Z"/>
            <path class="cls-34" d="m293.64,511.58c.29.71-.06,1.52-.77,1.8-.71.29-1.52-.06-1.8-.77-.29-.71.06-1.52.77-1.8.71-.29,1.52.06,1.8.77Z"/>
            <path class="cls-51" d="m301.42,519.43c.18.44-.03.94-.47,1.11-.44.18-.94-.03-1.11-.47-.18-.44.03-.94.47-1.11.44-.18.94.03,1.11.47Z"/>
            <path class="cls-71" d="m266.46,577.88c.25.61-.05,1.31-.66,1.56-.61.25-1.31-.05-1.56-.66-.25-.61.05-1.31.66-1.56.61-.25,1.31.05,1.56.66Z"/>
            <path class="cls-74" d="m281.82,294.43c.4.98-.08,2.09-1.06,2.49s-2.09-.08-2.49-1.06c-.4-.98.08-2.09,1.06-2.49.98-.4,2.09.08,2.49,1.06Z"/>
            <path class="cls-24" d="m313.96,298.37c.2.48-.04,1.04-.52,1.23-.48.2-1.04-.04-1.23-.52-.2-.48.04-1.04.52-1.23.48-.2,1.04.04,1.23.52Z"/>
            <path class="cls-11" d="m297.81,255.27c.15.38-.03.81-.41.96-.38.15-.81-.03-.96-.41-.15-.38.03-.81.41-.96.38-.15.81.03.96.41Z"/>
            <path class="cls-49" d="m310.62,251.47c.28.69-.05,1.46-.74,1.74-.69.28-1.46-.05-1.74-.74-.28-.69.05-1.46.74-1.74.69-.28,1.46.05,1.74.74Z"/>
            <path class="cls-21" d="m280.02,276.89c.23.58-.05,1.24-.63,1.47-.58.23-1.24-.05-1.47-.63-.23-.58.05-1.24.63-1.47.58-.23,1.24.05,1.47.63Z"/>
            <path class="cls-22" d="m310.99,187.29c.34.84-.07,1.8-.91,2.13-.84.34-1.8-.07-2.13-.91-.34-.84.07-1.8.91-2.13s1.8.07,2.13.91Z"/>
            <path class="cls-45" d="m303.64,174.97c.16.4-.03.86-.43,1.02-.4.16-.86-.03-1.02-.43-.16-.4.03-.86.43-1.02.4-.16.86.03,1.02.43Z"/>
            <path class="cls-76" d="m206.65,203.19c.31.76-.06,1.63-.82,1.94-.76.31-1.63-.06-1.94-.82-.31-.76.06-1.63.82-1.94.76-.31,1.63.06,1.94.82Z"/>
            <path class="cls-68" d="m205.51,218.99c.29.71-.06,1.51-.76,1.8-.71.29-1.51-.06-1.8-.76-.29-.71.06-1.51.76-1.8.71-.29,1.51.06,1.8.76Z"/>
            <path class="cls-9" d="m203.62,250.48c.36.9-.07,1.92-.97,2.28-.9.36-1.92-.07-2.28-.97-.36-.9.07-1.92.97-2.28.9-.36,1.92.07,2.28.97Z"/>
            <path class="cls-80" d="m200.42,297.09c.29.72-.06,1.54-.78,1.83-.72.29-1.54-.06-1.83-.78-.29-.72.06-1.54.78-1.83.72-.29,1.54.06,1.83.78Z"/>
            <path class="cls-46" d="m198.03,327.01c.19.48-.04,1.03-.52,1.22-.48.19-1.03-.04-1.22-.52-.19-.48.04-1.03.52-1.22.48-.19,1.03.04,1.22.52Z"/>
            <path class="cls-41" d="m379.8,140.6c.24.59-.05,1.26-.64,1.5-.59.24-1.26-.05-1.5-.64-.24-.59.05-1.26.64-1.5.59-.24,1.26.05,1.5.64Z"/>
            <path class="cls-28" d="m400.31,70.05c.22.55-.04,1.17-.59,1.4-.55.22-1.17-.04-1.4-.59s.04-1.17.59-1.4c.55-.22,1.17.04,1.4.59Z"/>
          </g>
        </g>
      </g>
    </g>
  </g>
</svg>