<?xml version="1.0" encoding="UTF-8"?>
<svg xmlns="http://www.w3.org/2000/svg" xmlns:xlink="http://www.w3.org/1999/xlink" viewBox="0 0 147.13 49.82">
  <defs>
    <style>
      .cls-1 {
        fill: url(#radial-gradient-16);
      }

      .cls-1, .cls-2, .cls-3, .cls-4, .cls-5, .cls-6, .cls-7, .cls-8, .cls-9, .cls-10, .cls-11, .cls-12, .cls-13, .cls-14, .cls-15, .cls-16, .cls-17, .cls-18, .cls-19, .cls-20, .cls-21, .cls-22, .cls-23, .cls-24, .cls-25, .cls-26, .cls-27, .cls-28, .cls-29, .cls-30 {
        stroke-width: 0px;
      }

      .cls-2 {
        fill: url(#linear-gradient);
      }

      .cls-3 {
        fill: url(#radial-gradient-8);
      }

      .cls-31 {
        clip-path: url(#clippath-2);
      }

      .cls-32 {
        isolation: isolate;
      }

      .cls-4 {
        fill: url(#radial-gradient-13);
      }

      .cls-5 {
        fill: url(#radial-gradient-12);
      }

      .cls-6 {
        fill: none;
      }

      .cls-33 {
        clip-path: url(#clippath-1);
      }

      .cls-7 {
        fill: url(#radial-gradient-22);
      }

      .cls-34 {
        filter: url(#outer-glow-7);
      }

      .cls-34, .cls-35, .cls-36 {
        mix-blend-mode: screen;
      }

      .cls-8 {
        fill: url(#radial-gradient-19);
      }

      .cls-9 {
        fill: url(#radial-gradient-20);
      }

      .cls-10 {
        fill: url(#radial-gradient-25);
      }

      .cls-35 {
        filter: url(#outer-glow-8);
      }

      .cls-11 {
        fill: url(#linear-gradient-2);
      }

      .cls-12 {
        fill: url(#radial-gradient-17);
      }

      .cls-13 {
        fill: url(#radial-gradient-21);
      }

      .cls-36 {
        filter: url(#outer-glow-9);
      }

      .cls-14 {
        fill: url(#radial-gradient-2);
      }

      .cls-15 {
        fill: url(#radial-gradient-7);
      }

      .cls-16 {
        fill: url(#linear-gradient-3);
      }

      .cls-17 {
        fill: url(#radial-gradient-26);
      }

      .cls-37 {
        clip-path: url(#clippath);
      }

      .cls-18 {
        fill: url(#radial-gradient-5);
      }

      .cls-19 {
        fill: url(#radial-gradient-24);
      }

      .cls-20 {
        fill: url(#radial-gradient);
      }

      .cls-21 {
        fill: url(#radial-gradient-14);
      }

      .cls-22 {
        fill: url(#radial-gradient-18);
      }

      .cls-23 {
        fill: url(#radial-gradient-10);
      }

      .cls-24 {
        fill: url(#radial-gradient-6);
      }

      .cls-25 {
        fill: url(#radial-gradient-15);
      }

      .cls-26 {
        fill: url(#radial-gradient-9);
      }

      .cls-27 {
        fill: url(#radial-gradient-3);
      }

      .cls-28 {
        fill: url(#radial-gradient-11);
      }

      .cls-29 {
        fill: url(#radial-gradient-4);
      }

      .cls-30 {
        fill: url(#radial-gradient-23);
      }
    </style>
    <clipPath id="clippath">
      <rect class="cls-6" x="7.12" width="140.01" height="50.54"/>
    </clipPath>
    <linearGradient id="linear-gradient" x1="622.65" y1="-870.26" x2="540.08" y2="-838.58" gradientTransform="translate(497.56 1006.11) rotate(-55.04)" gradientUnits="userSpaceOnUse">
      <stop offset="0" stop-color="#0085e6"/>
      <stop offset=".13" stop-color="#007fde" stop-opacity=".96"/>
      <stop offset=".38" stop-color="#0071ca" stop-opacity=".84"/>
      <stop offset=".72" stop-color="#005ba9" stop-opacity=".66"/>
      <stop offset="1" stop-color="#00478c" stop-opacity=".49"/>
    </linearGradient>
    <filter id="outer-glow-7" filterUnits="userSpaceOnUse">
      <feOffset dx="0" dy="0"/>
      <feGaussianBlur result="blur" stdDeviation="1.08"/>
      <feFlood flood-color="#00f2ff" flood-opacity=".7"/>
      <feComposite in2="blur" operator="in"/>
      <feComposite in="SourceGraphic"/>
    </filter>
    <radialGradient id="radial-gradient" cx="4622.33" cy="-8133.37" fx="4622.33" fy="-8133.37" r=".76" gradientTransform="translate(9386.61 1398.56) rotate(-111.12)" gradientUnits="userSpaceOnUse">
      <stop offset=".19" stop-color="aqua"/>
      <stop offset=".4" stop-color="#00fcfd" stop-opacity=".99"/>
      <stop offset=".51" stop-color="#02f4f7" stop-opacity=".96"/>
      <stop offset=".6" stop-color="#05e7ee" stop-opacity=".91"/>
      <stop offset=".68" stop-color="#0ad4e1" stop-opacity=".83"/>
      <stop offset=".74" stop-color="#10bbcf" stop-opacity=".74"/>
      <stop offset=".81" stop-color="#179cba" stop-opacity=".62"/>
      <stop offset=".86" stop-color="#2078a1" stop-opacity=".47"/>
      <stop offset=".92" stop-color="#2a4e83" stop-opacity=".31"/>
      <stop offset=".97" stop-color="#351f63" stop-opacity=".13"/>
      <stop offset="1" stop-color="#3d004d" stop-opacity="0"/>
    </radialGradient>
    <radialGradient id="radial-gradient-2" cx="4632.08" cy="-8119.63" fx="4632.08" fy="-8119.63" r="1.64" xlink:href="#radial-gradient"/>
    <radialGradient id="radial-gradient-3" cx="4627.08" cy="-8160.17" fx="4627.08" fy="-8160.17" r=".83" xlink:href="#radial-gradient"/>
    <radialGradient id="radial-gradient-4" cx="4639.77" cy="-8139.27" fx="4639.77" fy="-8139.27" r=".83" xlink:href="#radial-gradient"/>
    <radialGradient id="radial-gradient-5" cx="4643.3" cy="-8168.49" fx="4643.3" fy="-8168.49" r=".65" xlink:href="#radial-gradient"/>
    <radialGradient id="radial-gradient-6" cx="4620.41" cy="-8192.5" fx="4620.41" fy="-8192.5" r=".64" xlink:href="#radial-gradient"/>
    <radialGradient id="radial-gradient-7" cx="4633.25" cy="-8226.19" fx="4633.25" fy="-8226.19" r=".74" xlink:href="#radial-gradient"/>
    <radialGradient id="radial-gradient-8" cx="4677.92" cy="-8239.22" fx="4677.92" fy="-8239.22" r=".82" xlink:href="#radial-gradient"/>
    <radialGradient id="radial-gradient-9" cx="4618.8" cy="-8156.36" fx="4618.8" fy="-8156.36" r=".29" xlink:href="#radial-gradient"/>
    <radialGradient id="radial-gradient-10" cx="4614.69" cy="-8154.47" fx="4614.69" fy="-8154.47" r=".35" xlink:href="#radial-gradient"/>
    <radialGradient id="radial-gradient-11" cx="4616.77" cy="-8161.88" fx="4616.77" fy="-8161.88" r=".21" xlink:href="#radial-gradient"/>
    <radialGradient id="radial-gradient-12" cx="4615.03" cy="-8166.62" fx="4615.03" fy="-8166.62" r=".28" xlink:href="#radial-gradient"/>
    <radialGradient id="radial-gradient-13" cx="4610.93" cy="-8168.82" fx="4610.93" fy="-8168.82" r=".24" xlink:href="#radial-gradient"/>
    <radialGradient id="radial-gradient-14" cx="4607.38" cy="-8151.09" fx="4607.38" fy="-8151.09" r=".46" xlink:href="#radial-gradient"/>
    <radialGradient id="radial-gradient-15" cx="4608.86" cy="-8135.49" fx="4608.86" fy="-8135.49" r=".36" xlink:href="#radial-gradient"/>
    <radialGradient id="radial-gradient-16" cx="4609.51" cy="-8128.66" fx="4609.51" fy="-8128.66" r=".45" xlink:href="#radial-gradient"/>
    <radialGradient id="radial-gradient-17" cx="4620.12" cy="-8133.72" fx="4620.12" fy="-8133.72" r=".2" xlink:href="#radial-gradient"/>
    <radialGradient id="radial-gradient-18" cx="4622.84" cy="-8123.36" fx="4622.84" fy="-8123.36" r=".26" xlink:href="#radial-gradient"/>
    <radialGradient id="radial-gradient-19" cx="4605.42" cy="-8171.77" fx="4605.42" fy="-8171.77" r=".33" xlink:href="#radial-gradient"/>
    <radialGradient id="radial-gradient-20" cx="4610.38" cy="-8187.57" fx="4610.38" fy="-8187.57" r=".47" xlink:href="#radial-gradient"/>
    <radialGradient id="radial-gradient-21" cx="4618.88" cy="-8208.53" fx="4618.88" fy="-8208.53" r=".58" xlink:href="#radial-gradient"/>
    <radialGradient id="radial-gradient-22" cx="4618.41" cy="-8213.53" fx="4618.41" fy="-8213.53" r=".28" xlink:href="#radial-gradient"/>
    <radialGradient id="radial-gradient-23" cx="4647.76" cy="-8214.72" fx="4647.76" fy="-8214.72" r=".41" xlink:href="#radial-gradient"/>
    <radialGradient id="radial-gradient-24" cx="4663.83" cy="-8235.11" fx="4663.83" fy="-8235.11" r=".38" xlink:href="#radial-gradient"/>
    <clipPath id="clippath-1">
      <rect class="cls-6" x="-28.94" y="-328.12" width="262.29" height="270.58"/>
    </clipPath>
    <linearGradient id="linear-gradient-2" x1="-196.95" y1="382.75" x2="-295.87" y2="420.7" gradientTransform="translate(367.99 -439.31) rotate(17.15)" xlink:href="#linear-gradient"/>
    <filter id="outer-glow-8" filterUnits="userSpaceOnUse">
      <feOffset dx="0" dy="0"/>
      <feGaussianBlur result="blur-2" stdDeviation="1.3"/>
      <feFlood flood-color="#00f2ff" flood-opacity=".7"/>
      <feComposite in2="blur-2" operator="in"/>
      <feComposite in="SourceGraphic"/>
    </filter>
    <radialGradient id="radial-gradient-25" cx="3001.73" cy="-8032.94" fx="3001.73" fy="-8032.94" r=".55" gradientTransform="translate(2713.22 8143.76) rotate(-38.93)" xlink:href="#radial-gradient"/>
    <clipPath id="clippath-2">
      <rect class="cls-6" x="-30.55" y="-328.12" width="262.29" height="270.58"/>
    </clipPath>
    <linearGradient id="linear-gradient-3" x1="573.54" y1="115.52" x2="639.25" y2="89.48" gradientTransform="translate(-432.39 145.53) rotate(-25.22)" xlink:href="#linear-gradient"/>
    <filter id="outer-glow-9" filterUnits="userSpaceOnUse">
      <feOffset dx="0" dy="0"/>
      <feGaussianBlur result="blur-3" stdDeviation="1.3"/>
      <feFlood flood-color="#00f2ff" flood-opacity=".7"/>
      <feComposite in2="blur-3" operator="in"/>
      <feComposite in="SourceGraphic"/>
    </filter>
    <radialGradient id="radial-gradient-26" cx="6160.85" cy="-9039.79" fx="6160.85" fy="-9039.79" r=".67" gradientTransform="translate(9935.54 4875.15) rotate(-97.9)" xlink:href="#radial-gradient"/>
  </defs>
  <g class="cls-32">
    <g id="Layer_6" data-name="Layer 6">
      <g class="cls-37">
        <g>
          <path class="cls-2" d="m215,11.83l-18.69,25.34-24.44,5.69-1.36-29.06.09-.05-10.13-13.2.12-1.48-.45,1.42-16.91,12.2.14-9.81.69-1.06-.94.82-21.02.16h0s-106.89.42-106.89.42l-.63-.82.21.6-1.12-.64,1.3,1.14,20.28,58.69-.13.37,25.42-12.7,17.83,9.64-.19.17h.25s-8.49,24.43-8.49,24.43l-18.55-1.5-.03.36,18.46,1.49-4.9,14.1-.55.72,22.39-13.46,38.93,3.14-27,22.45.23.28,27.17-22.59,12.67,24.11-7.75,21.41,39.82,22.82.19.26,17.94-58.8,52.47.83h.28s-17.82-41.98-17.82-41.98l.12-.14-.2-.04-.08-.18-.12.14-16.23-3.52.02-.06h-.26s-.13-.02-.13-.02v.03s-27.18,1.03-27.18,1.03l17.15-17.99-.11.03,18.44-25-.29-.21Zm-43.48,31.14l-9.04,4.17,7.72-32.18,1.31,28.01Zm-9.45,4.36l-5.43,2.5,2.36-30.29,11.07-5.53-8,33.31Zm-35.74,41.5l15.85-31.37-3.38,55.1-12.47-23.73Zm-43.2-13.69l16.72,2.4-13.19,7.93-10.7-.86,7.18-9.46Zm.06-.36l-4.19-14.8,20.76,17.18-16.57-2.38Zm50.58-57.82l-8.26,1.62,16.81-14.76-8.55,13.14Zm-.03.37l.41,1.9-17.18,12.39-3-2.91,11-9.66,8.77-1.72Zm24.88,2.4l-2.36,30.27-13.56,6.25,10.86-34,5.06-2.53Zm-4.9,2.05l6.27-19.64-1.34,17.18-4.94,2.47Zm-49.02,19.14l-.7,5.7-23.41,11.69,24.11-17.39Zm-23.07,16.2l23.64-20.75-.5,4.07-23.13,16.68Zm23.47-16.48l11.84-8.54,5.48,5.32-18.03,9.01.71-5.79Zm.06-.49l.51-4.14,8.03-7.05,2.97,2.89-11.52,8.31Zm.58-4.68l1.57-12.73,6.14,5.96-7.71,6.77Zm-.41.36l-25.39,22.29,26.97-35.13-1.58,12.84Zm-1.39,11.22l-1.38,11.16-23.05,1.04,24.43-12.2Zm.39-.19l18.36-9.17,19.29,18.75h-.02s0,0,0,0l-39.04,1.76,1.4-11.34Zm18.7-9.34l13.6-6.79,5.47,25.33-19.08-18.54Zm31.82,30.63l-1.01,13.02-10.9-23.83,11.91,10.82Zm.34.31l1.49,1.35-2.35,9.81.87-11.16Zm1.79,1.63l4.28,3.88-6.96,7.3,2.68-11.18Zm-14.12-13.31l12.92-.49-.89,11.41-12.03-10.92Zm.45-.38l12.93-5.96-.43,5.49-12.5.47Zm-.7-1l.4-27.85,10.1-5.05-10.5,32.9Zm-.36-.37l-5.29-24.46,5.68-2.84-.39,27.3Zm-5.36-24.83l-2.33-10.8,8.3-5.99-.2,13.91-5.77,2.88Zm-.33.17l-13.8,6.89-5.52-5.37,17-12.26,2.32,10.74Zm-22.84-1.9l-6.17-6,16.73-3.28-10.56,9.27Zm-34.84,30.45l.72-18.64,14.03-29.76,13.3,11.87-28.05,36.53Zm.46-18.94L15.9,3.66l77.38,6.72-13.96,29.6Zm-.3.24l-13.99,6.99L16.55,4.45l62.48,35.77Zm.19.31l-.72,18.56-13.17-11.62,13.89-6.94Zm-.08,19.11l23.38-1.05-2.28,18.5-21.09-17.45Zm23.74-1.07l38.68-1.74-40.97,20.3,2.29-18.56Zm39.67-1.23l11.23,24.55-.14.59.28-.29.18.39.05-.63,7.38-7.75,25.64,23.28,1.29,1.17-49.32,14.32,3.41-55.64Zm14.53,12.34l3.26-13.57,18.61-.7-17.44,18.3-4.43-4.02Zm-.3-.28l-.68-.62-.86-.79.91-11.73,3.82-.14-3.19,13.28Zm-.61-13.5l.44-5.65,5.35-2.47-1.91,7.97-3.88.15Zm13.89-42.28l-11.03,5.51,1.4-18.04,9.62,12.53Zm-10.1-12.55l-6.69,20.94-10.25,5.12.2-13.99,16.73-12.07Zm-17.09,11.88l-8.39,6.05-.4-1.84,8.93-13.72-.14,9.51Zm-18.05,5.76l-17.21,3.37,14.58-18.92,20.52-.16-17.89,15.71Zm-3.08-15.55l-14.58,18.92-.12-.11v.02s-13.53-12.07-13.53-12.07l-.05.11L19.09,3.57l102.64-.41ZM15.64,4.41l27.51,36.01-7.73,21.25L15.64,4.41Zm20.11,57.44l7.71-21.2,16.68,9.01-24.39,12.19Zm7.73-21.6L16.36,4.76l48.32,42.62-4.16,2.08-17.05-9.22Zm21.5,7.4l12.38,10.92-16.44-8.89,4.06-2.03Zm13.67,12.43l4.2,14.83-7.33,9.66-5.23-.42,8.36-24.07Zm-8.48,24.42l5.09.41-9.65,12.73,4.56-13.14Zm-4.4,13.52l9.91-13.07,10.43.84-20.35,12.23Zm34.68-20.42l41.55-20.59-15.99,31.64-38.75-3.13,13.18-7.92Zm30.98,56.89l7.55-20.88,31.31,43.15-38.86-22.27Zm7.79-21.16l49.28-14.3-.29.71.17-.2-17.52,57.41-31.64-43.61Zm101.91-13.93l-51.94-.82,34.41-40.48,17.53,41.31Zm-33.92-45.02l16.11,3.49-14.27,16.79-19.64,23.11,4.92-12,12.89-31.4Zm-.38-.02l-12.81,31.21-5.28,12.87-26.97-24.49,17.69-18.56,27.37-1.03Zm-27.53.68l-18.88.71,1.96-8.15,9.39-4.33,24.11-5.61-16.57,17.38Z"/>
          <g class="cls-34">
            <path class="cls-20" d="m134.19,16.43c.39.17.56.62.39,1.01s-.62.56-1.01.39c-.39-.17-.56-.62-.39-1.01.17-.39.62-.56,1.01-.39Z"/>
            <path class="cls-14" d="m143.84,1.59c.83.37,1.2,1.33.83,2.16-.37.83-1.33,1.2-2.16.83s-1.2-1.33-.83-2.16c.37-.83,1.33-1.2,2.16-.83Z"/>
            <path class="cls-27" d="m107.5,21.6c.42.19.61.67.42,1.09-.19.42-.67.61-1.09.42-.42-.19-.61-.67-.42-1.09s.67-.61,1.09-.42Z"/>
            <path class="cls-29" d="m122.43,2.23c.42.19.61.67.42,1.09-.19.42-.67.61-1.09.42-.42-.19-.61-.67-.42-1.09s.67-.61,1.09-.42Z"/>
            <path class="cls-18" d="m93.83,9.62c.33.15.48.53.33.86-.15.33-.53.48-.86.33-.33-.15-.48-.53-.33-.86s.53-.48.86-.33Z"/>
            <path class="cls-24" d="m79.67,39.65c.32.14.47.52.32.84-.14.32-.52.47-.84.32-.32-.14-.47-.52-.32-.84.14-.32.52-.47.84-.32Z"/>
            <path class="cls-15" d="m43.66,39.71c.37.17.54.6.38.98-.17.37-.6.54-.98.38-.37-.17-.54-.6-.38-.98.17-.37.6-.54.98-.38Z"/>
            <path class="cls-3" d="m15.44,2.66c.42.18.6.67.42,1.08-.18.42-.67.6-1.08.42-.42-.18-.6-.67-.42-1.08.18-.42.67-.6,1.08-.42Z"/>
            <path class="cls-26" d="m113.6,28.44c.15-.06.32.02.38.17s-.02.32-.17.38c-.15.06-.32-.02-.38-.17s.02-.32.17-.38Z"/>
            <path class="cls-23" d="m116.82,31.54c.18-.07.38.02.45.2.07.18-.02.38-.2.45-.18.07-.38-.02-.45-.2s.02-.38.2-.45Z"/>
            <path class="cls-28" d="m109.21,32.39c.11-.04.23.01.28.12s-.01.23-.12.28c-.11.04-.23-.01-.28-.12-.04-.11.01-.23.12-.28Z"/>
            <path class="cls-5" d="m105.39,35.65c.15-.06.31.02.37.16s-.02.31-.16.37c-.15.06-.31-.02-.37-.16-.06-.15.02-.31.16-.37Z"/>
            <path class="cls-4" d="m104.83,40.31c.12-.05.26.01.31.14.05.12-.01.26-.14.31-.12.05-.26-.01-.31-.14-.05-.12.01-.26.14-.31Z"/>
            <path class="cls-21" d="m122.57,37.03c.24-.09.5.03.6.26.09.24-.03.5-.26.6s-.5-.03-.6-.26.03-.5.26-.6Z"/>
            <path class="cls-25" d="m136.63,30.12c.18-.07.39.02.46.21s-.02.39-.21.46c-.18.07-.39-.02-.46-.21s.02-.39.21-.46Z"/>
            <path class="cls-1" d="m142.73,26.97c.23-.09.49.03.58.26.09.23-.03.49-.26.58s-.49-.03-.58-.26c-.09-.23.03-.49.26-.58Z"/>
            <path class="cls-12" d="m134.28,19.13c.1-.04.22.01.26.11.04.1-.01.22-.11.26s-.22-.01-.26-.11.01-.22.11-.26Z"/>
            <path class="cls-22" d="m142.94,12.8c.13-.05.28.01.34.15.05.13-.01.28-.15.34-.13.05-.28-.01-.34-.15-.05-.13.01-.28.15-.34Z"/>
            <path class="cls-8" d="m104.03,46.43c.17-.07.37.02.43.19.07.17-.02.37-.19.43-.17.07-.37-.02-.43-.19-.07-.17.02-.37.19-.43Z"/>
            <path class="cls-9" d="m87.46,47.36c.24-.09.52.03.61.27s-.03.52-.27.61-.52-.03-.61-.27.03-.52.27-.61Z"/>
            <path class="cls-13" d="m64.8,46.89c.3-.12.63.03.75.33.12.3-.03.63-.33.75-.3.12-.63-.03-.75-.33s.03-.63.33-.75Z"/>
            <path class="cls-7" d="m60.41,49.41c.14-.06.3.02.36.16.06.14-.02.3-.16.36-.14.06-.3-.02-.36-.16-.06-.14.02-.3.16-.36Z"/>
            <path class="cls-30" d="m48.68,22.34c.21-.08.44.02.53.23.08.21-.02.44-.23.53s-.44-.02-.53-.23c-.08-.21.02-.44.23-.53Z"/>
            <path class="cls-19" d="m23.88,14.72c.19-.08.41.02.49.22.08.19-.02.41-.22.49-.19.08-.41-.02-.49-.22-.08-.19.02-.41.22-.49Z"/>
          </g>
        </g>
      </g>
      <g>
        <g class="cls-33">
          <g>
            <path class="cls-11" d="m77.31-41.95l-35.75-12.03-15.45-25.79,32.65-12.21.08.09,11.34-16.39,1.73-.41h-1.79s-20.11-14.82-20.11-14.82l11.24-3.43,1.46.4-1.28-.77-7.89-23.92h0s-39.65-121.78-39.65-121.78l.7-1.01-.61.46.32-1.52-.83,1.9-59.51,44.64-.47-.02,23.81,24.34-4.46,23.87-.27-.16.1.28-30.99-.72-5.09-21.71-.42.1,5.06,21.6-17.88-.42-1.03-.36,23.55,20.6,10.68,45.55-35.5-22.57-.23.37,35.72,22.71-22.86,23.29-27.26-.99-11.44,53.78-.23.31,73.65-1.08L-13.29,20.38l.1.32L28.16-15.01l.21.09-.02-.25.18-.16-.2-.08-1.94-19.8h.08s-.11-.28-.11-.28l-.02-.15h-.04s-11.13-30.61-11.13-30.61l26.8,12.97-.07-.12,35.27,11.87.14-.41Zm-51.45-38.18l-8.07-8.78,39.53-2.98-31.46,11.76Zm-8.44-9.19l-4.85-5.28,35.41-8.41,10.36,10.6-40.92,3.09Zm-60.43-25.56L-1.42-108.3l-64.08,16.33,22.5-22.92Zm-.21-54.29l3.39,19.95-13.87-12.14-2.94-12.53,13.42,4.72Zm.43-.06l15.34-10.2-11.99,29.97-3.36-19.77Zm84.48,36.51l-4.87-8.82,22.99,13.76-18.12-4.94Zm-.44.1l-2.01,1.16-20.43-15.06,2.22-4.49,15.05,9.01,5.17,9.37Zm6.38,29.26l-35.39,8.41L.14-108.14l42.76-.08,4.73,4.84Zm-4.13-4.84l24.7-.04-20.08,4.77-4.62-4.73ZM3.71-157.12l-6.76,1.29-21.91-22.41,28.67,21.13Zm-26.93-20.38l32.33,19.35-4.82.92-27.51-20.27Zm27.4,20.73l14.08,10.38-4.06,8.2-16.88-17.27,6.87-1.31Zm.58-.11l4.91-.93,10.99,6.58-2.2,4.45-13.69-10.09Zm5.55-1.06l15.1-2.87-4.55,9.18-10.54-6.31Zm-.56-.33l-34.73-20.79,49.95,17.89-15.22,2.9Zm-13.31,2.53l-13.24,2.52-9.63-25.91,22.87,23.39Zm.36.37l17.19,17.58L-.32-108.9v-.02s-.01,0-.01,0l-16.31-43.88,13.45-2.56Zm17.51,17.91l12.73,13.03L.16-108.9l14.15-28.55Zm-23.27,47.52l-15.22,3.61L-.99-107.48l-7.97,17.55Zm-.23.5l-.99,2.19-12.05.91,13.04-3.1Zm-1.2,2.64l-2.86,6.3-10.88-5.26,13.74-1.04ZM-.38-107.78l5.29,14.55-13.34,3.17L-.38-107.78Zm.6.37l11.54,12.56-6.42,1.52L.22-107.41Zm.88-1.16l31.91-9.75,9.46,9.67-41.37.07Zm.29-.54l25.96-14.99,5.32,5.44L1.4-109.11Zm26.35-15.22l11.46-6.62,9.87,7.27-15.94,4.87-5.4-5.52Zm-.31-.32l-12.92-13.21,4.1-8.27,20.22,14.9-11.4,6.58Zm-6.21-26.75l4.58-9.23,9.87,17.88-14.44-8.65Zm-47.5-28.58l21.53-6.01,39.08,5.1-8.66,19.52-51.95-18.61Zm21.77-6.41l18.18-85.65,20.7,90.72-38.87-5.07Zm-.39-.26l-13.1-13.4,31.01-70.96L-4.89-186.64Zm-.28.33l-21.43,5.98,8.43-19.28,13.01,13.3Zm-21.82,6.91l9.77,26.28-21.94,4.17,12.17-30.45Zm9.92,26.69L-.91-109.24l-38.17-39.29,22-4.19ZM-1.14-107.93l-23.89,21.81-.73.05.44.21-.38.35.74-.18,11.54,5.58-17.16,37.77-.86,1.9-34.4-51.01L-1.14-107.93Zm-8.75,21.1l16.67-1.26,7.62,20.97-27.26-13.19,2.96-6.52Zm.2-.45l.46-1,.58-1.27,13.72-3.26,1.57,4.31-16.32,1.23Zm15.17-5.64l6.6-1.57,4.78,5.2-9.79.74-1.59-4.37Zm53.31.35l-10.32-10.56,21.09-5.01-10.77,15.57Zm10.61-16.12l-26.33.05-9.59-9.81,16.03-4.9,19.9,14.66Zm-19.81-15.14l-9.98-7.35,1.96-1.13,18.92,5.15-10.9,3.33Zm-13.19-18.48l-10.15-18.39,26.92,9.7,7.7,23.34-24.48-14.65Zm16.61-9.21l-26.92-9.7.09-.17h-.02s8.81-19.85,8.81-19.85l-.14-.02-19.89-87.18,38.07,116.92Zm-40.29-120.55l-30.99,44.57-27.07-1.02,58.06-43.55Zm-58.14,43.98l27,1.02-4.17,22.33-22.83-23.35Zm27.47.9l30.54-43.92-30.91,70.73-3.9-3.98,4.26-22.82Zm-.56,27.24l-7.92,18.12,4.11-22.01,3.81,3.89Zm-9.17,20.15l-15.38,10.22-13.7-4.82-1.43-6.12,30.51.71Zm-30.96-.72l1.4,5.96-18.06-6.35,16.66.39Zm-17.03-.06l18.54,6.52,2.86,12.21-21.4-18.73Zm36,32.07L-.96-108.67l-41.94-6.64-10.63-45.34,13.87,12.13Zm-53.53,56.18l26.58.96-37.74,51.52,11.16-52.49Zm26.99,1.14L-31.84-40.23l-.91-.07.29.12-71.89,1.06,38.14-52.07ZM-12.97,19.94l-18.1-59.55L27.72-15.19-12.97,19.94ZM25.95-35.25l1.92,19.65L3.49-25.72l-33.56-13.94,15.49,1.22,40.53,3.19Zm-.12-.44l-40.29-3.17-16.62-1.31,18.05-39.74,27.65,13.38,11.21,30.84Zm-10.86-31.15l-7.73-21.28,10.01-.76,8.38,9.12,15.24,25.44-25.9-12.53Z"/>
            <g class="cls-35">
              <path class="cls-10" d="m1.14,8.06c.19.24.15.59-.08.78-.24.19-.59.15-.78-.08-.19-.24-.15-.59.08-.78.24-.19.59-.15.78.08Z"/>
            </g>
          </g>
        </g>
        <g class="cls-31">
          <g>
            <path class="cls-16" d="m296.29-13.94l-.04-.23-.18.13-17.97-8.55.05-.06-.3-.06-.14-.07-.02.03-31.96-6.25,24.93-16.28h-.14s28.35-24.1,28.35-24.1l-.28-.33-28.74,24.43-30.06-.06,6.38-34.27.12-.03-.08-.18.27-1.43-.48.95-7.9-17.52.54-1.69-.92,1.54-23.06,9.59,2.86-11.41,1.09-1.04-1.32.7-24.56-5.57h0s-124.79-28.81-124.79-28.81l-.51-1.13.08.76-1.13-1.06,1.2,1.69,7.56,74.01-.26.39,33.13-7.85,18.15,16.13-.27.15.29.05-16.6,26.18-21.22-6.83-.13.41,21.12,6.8-9.57,15.1-.84.69,29.79-9.56,44.54,14.34-37.64,18.78.19.39L173.68-3.96l8.17,31.6-14.9,22.85,40.19,37.53.15.36,37.04-63.66,61.28,15.43-9.27-53.85.18-.13-.22-.11Zm-122.23,9.73l27.08-32.24-19.04,63.33-8.04-31.09Zm-27.21-20.86l-19.82-26.13,27.55,5.18-7.73,20.95Zm-19.42-6.96l18.84,7.38-17.55,5.63-12.25-3.94,10.96-9.07Zm.17-.4l-.83-18.41,19.5,25.72-18.67-7.32Zm74.84-53.56l-10.07-.38,23.64-12.6-13.57,12.98Zm-.14.43l-.04,2.33-23.43,9.74-2.7-4.22,15.48-8.25,10.69.4Zm28.36,9.62l-11.04,34.66-17.52,3.58,21.98-36.67,6.59-1.56Zm-6.28,1.04l12.7-21.19-6.27,19.67-6.43,1.52Zm-62.42,8.88l-2.38,6.45-30.5,7.22,32.89-13.67Zm-31.35,12.56l33.25-17.72-1.7,4.61-31.55,13.12Zm31.89-12.79l16.15-6.71,4.93,7.71-23.5,5.56,2.42-6.56Zm.2-.55l1.73-4.69,11.3-6.02,2.67,4.18-15.71,6.53Zm1.96-5.3l5.32-14.42,5.52,8.64-10.84,5.78Zm-.57.31l-35.72,19.04,41.09-33.58-5.37,14.54Zm-4.69,12.71l-4.67,12.64-27.17-5.11,31.83-7.53Zm.51-.12l23.93-5.66,17.36,27.15h-.02s0,0,0,0l-46.01-8.65,4.74-12.84Zm50.04,33.47l-7.82-11.36,15.2,2.97-4.16,13.06-3.22-4.68Zm-7.19-11.68l16.71-3.41-2,6.28-14.71-2.87Zm-18.48-27.56l17.73-4.2-.56,31.04-17.17-26.85Zm23.64,37.06l5.08,7.38-4.75,14.9-6.18-30.78,5.85,8.5Zm5.39,7.83l1.36,1.98-5.43,10.79,4.07-12.77Zm1.64,2.39l3.92,5.7-10.12,6.61,6.2-12.31Zm.22-.44l7.52-14.93,21.9,4.28-25.36,16.56-4.06-5.9Zm-.28-.41l-1.42-2.06,4.28-13.43,4.5.88-7.36,14.61Zm2.99-15.91l2.06-6.47,6.92-1.41-4.42,8.77-4.57-.89Zm-15.67-4.32l8.1-32.37,13.16-3.12-21.27,35.48Zm-.31-.53l.54-29.97,7.4-1.75-7.94,31.73Zm.55-30.42l.24-13.24,11.32-4.71-4.05,16.16-7.51,1.78Zm-.43.1l-17.98,4.26-4.97-7.77,23.19-9.64-.24,13.16Zm-26.12-8.47l-5.55-8.68,20.41.77-14.85,7.92Zm-48.98,25.96l5.95-21.54,24.52-30.86,12.26,17.48-42.73,34.92Zm5.73-21.96l-64.02-59.73,88.4,29.04-24.39,30.69Zm-.42.2l-18.24,4.32-44.82-63.16,63.06,58.84Zm.14.41l-5.93,21.45-12.18-17.16,18.1-4.29Zm22.65,27.52l45.59,8.57-53.34,12.44,7.76-21.01Zm46.6,9.44l6.37,31.71-.33.65.41-.26.1.51.23-.72,10.74-7.01,24.7,35.9-61.45,3.18,19.23-63.95Zm43.58,59.99l32.66-45.72,17.83,8.48-50.49,37.24Zm32.22-45.85l-33.18,46.45-24.74-35.95,25.72-16.79,32.21,6.3Zm-8.21-22.48l-24.09,15.73-22.22-4.34,4.52-8.97,12.14-2.48,29.65.06Zm-29.86-.46l-11.68,2.38,17.83-35.41-6.14,33.02Zm-12.22,2.49l-7.02,1.43,11.05-34.68,14.42-3.41-18.46,36.66Zm18.55-37.12l-14.37,3.4,6.58-20.66,7.79,17.26Zm-8.34-17.41l-13.54,22.59-13.36,3.16,4.07-16.26,22.82-9.49Zm-23.19,9.17l-11.44,4.76.04-2.26,14.17-13.55-2.77,11.05Zm-22.63,1.77l-20.99-.79,22.19-18.07,23.97,5.44-25.17,13.42Zm.67-18.98l-22.19,18.06-.1-.16v.02s-12.48-17.78-12.48-17.78l-.09.11-84.95-27.91,119.81,27.66Zm-124.06-27.63l22.21,49.53-14.83,22.67-7.38-72.2Zm7.71,72.49l14.8-22.61,16.98,15.08-31.78,7.53Zm14.93-23.07l-21.89-48.81,44.67,62.95-5.42,1.28-17.36-15.42Zm23.05,14.52l11.44,16.13-16.74-14.87,5.3-1.25Zm12.53,18.25l.83,18.45-11.19,9.26-5.98-1.93,16.34-25.78Zm-16.58,26.15l5.83,1.88-14.75,12.2,8.92-14.07Zm-8.83,14.56l15.15-12.53,11.94,3.84-27.08,8.69Zm46.04-14.31l54.1-12.62-27.31,32.52-44.33-14.27,17.55-5.63Zm35.07,52.56l24.69,58.9-39.22-36.63,14.53-22.28Zm.36-.26l61.39-3.17-.53.74.26-.19-36.16,62.15-24.95-59.53Zm122.67,11.68l-60.35-15.2,12.37-9.13,38.85-28.66,9.12,52.98Z"/>
            <g class="cls-36">
              <path class="cls-17" d="m136.11,14.21c.29.22.35.64.13.93-.22.29-.64.35-.93.13-.29-.22-.35-.64-.13-.93.22-.29.64-.35.93-.13Z"/>
            </g>
          </g>
        </g>
      </g>
    </g>
  </g>
</svg>