<?xml version="1.0" encoding="UTF-8"?>
<svg xmlns="http://www.w3.org/2000/svg" xmlns:xlink="http://www.w3.org/1999/xlink" viewBox="0 0 262.29 270.58">
  <defs>
    <style>
      .cls-1 {
        fill: url(#radial-gradient-74);
      }

      .cls-1, .cls-2, .cls-3, .cls-4, .cls-5, .cls-6, .cls-7, .cls-8, .cls-9, .cls-10, .cls-11, .cls-12, .cls-13, .cls-14, .cls-15, .cls-16, .cls-17, .cls-18, .cls-19, .cls-20, .cls-21, .cls-22, .cls-23, .cls-24, .cls-25, .cls-26, .cls-27, .cls-28, .cls-29, .cls-30, .cls-31, .cls-32, .cls-33, .cls-34, .cls-35, .cls-36, .cls-37, .cls-38, .cls-39, .cls-40, .cls-41, .cls-42, .cls-43, .cls-44, .cls-45, .cls-46, .cls-47, .cls-48, .cls-49, .cls-50, .cls-51, .cls-52, .cls-53, .cls-54, .cls-55, .cls-56, .cls-57, .cls-58, .cls-59, .cls-60, .cls-61, .cls-62, .cls-63, .cls-64, .cls-65, .cls-66, .cls-67, .cls-68, .cls-69, .cls-70, .cls-71, .cls-72, .cls-73, .cls-74, .cls-75, .cls-76, .cls-77, .cls-78, .cls-79, .cls-80, .cls-81, .cls-82 {
        stroke-width: 0px;
      }

      .cls-2 {
        fill: url(#radial-gradient-58);
      }

      .cls-3 {
        fill: url(#radial-gradient-68);
      }

      .cls-4 {
        fill: url(#radial-gradient-30);
      }

      .cls-5 {
        fill: url(#radial-gradient-70);
      }

      .cls-6 {
        fill: url(#radial-gradient-16);
      }

      .cls-7 {
        fill: url(#linear-gradient);
      }

      .cls-8 {
        fill: url(#radial-gradient-40);
      }

      .cls-83 {
        filter: url(#outer-glow-10);
      }

      .cls-83, .cls-84, .cls-85, .cls-86 {
        mix-blend-mode: screen;
      }

      .cls-9 {
        fill: url(#radial-gradient-39);
      }

      .cls-10 {
        fill: url(#radial-gradient-46);
      }

      .cls-11 {
        fill: url(#radial-gradient-77);
      }

      .cls-12 {
        fill: url(#radial-gradient-59);
      }

      .cls-13 {
        fill: url(#radial-gradient-57);
      }

      .cls-14 {
        fill: url(#radial-gradient-8);
      }

      .cls-87 {
        clip-path: url(#clippath-2);
      }

      .cls-88 {
        isolation: isolate;
      }

      .cls-15 {
        fill: url(#radial-gradient-69);
      }

      .cls-16 {
        fill: url(#radial-gradient-43);
      }

      .cls-17 {
        fill: url(#radial-gradient-13);
      }

      .cls-18 {
        fill: url(#radial-gradient-12);
      }

      .cls-19 {
        fill: url(#radial-gradient-35);
      }

      .cls-20 {
        fill: none;
      }

      .cls-21 {
        fill: url(#radial-gradient-27);
      }

      .cls-22 {
        fill: url(#radial-gradient-29);
      }

      .cls-23 {
        fill: url(#radial-gradient-60);
      }

      .cls-89 {
        clip-path: url(#clippath-1);
      }

      .cls-90 {
        clip-path: url(#clippath-4);
      }

      .cls-24 {
        fill: url(#radial-gradient-61);
      }

      .cls-25 {
        fill: url(#radial-gradient-55);
      }

      .cls-26 {
        fill: url(#radial-gradient-53);
      }

      .cls-27 {
        fill: url(#radial-gradient-38);
      }

      .cls-28 {
        fill: url(#radial-gradient-75);
      }

      .cls-29 {
        fill: url(#radial-gradient-65);
      }

      .cls-30 {
        fill: url(#radial-gradient-71);
      }

      .cls-31 {
        fill: url(#radial-gradient-22);
      }

      .cls-84 {
        filter: url(#outer-glow-7);
      }

      .cls-32 {
        fill: url(#radial-gradient-62);
      }

      .cls-33 {
        fill: url(#radial-gradient-47);
      }

      .cls-34 {
        fill: url(#radial-gradient-19);
      }

      .cls-35 {
        fill: url(#radial-gradient-20);
      }

      .cls-36 {
        fill: url(#radial-gradient-76);
      }

      .cls-37 {
        fill: url(#radial-gradient-25);
      }

      .cls-38 {
        fill: url(#radial-gradient-63);
      }

      .cls-85 {
        filter: url(#outer-glow-8);
      }

      .cls-39 {
        fill: url(#linear-gradient-2);
      }

      .cls-40 {
        fill: url(#radial-gradient-33);
      }

      .cls-41 {
        fill: url(#radial-gradient-17);
      }

      .cls-42 {
        fill: url(#radial-gradient-32);
      }

      .cls-43 {
        fill: url(#radial-gradient-21);
      }

      .cls-44 {
        fill: url(#radial-gradient-64);
      }

      .cls-86 {
        filter: url(#outer-glow-9);
      }

      .cls-45 {
        fill: url(#radial-gradient-54);
      }

      .cls-46 {
        fill: url(#radial-gradient-2);
      }

      .cls-47 {
        fill: url(#radial-gradient-41);
      }

      .cls-48 {
        fill: url(#radial-gradient-50);
      }

      .cls-49 {
        fill: url(#radial-gradient-7);
      }

      .cls-50 {
        fill: url(#linear-gradient-3);
      }

      .cls-51 {
        fill: url(#radial-gradient-66);
      }

      .cls-52 {
        fill: url(#radial-gradient-34);
      }

      .cls-53 {
        fill: url(#radial-gradient-26);
      }

      .cls-91 {
        clip-path: url(#clippath);
      }

      .cls-54 {
        fill: url(#radial-gradient-5);
      }

      .cls-55 {
        fill: url(#radial-gradient-24);
      }

      .cls-56 {
        fill: url(#radial-gradient);
      }

      .cls-57 {
        fill: url(#radial-gradient-37);
      }

      .cls-58 {
        fill: url(#radial-gradient-45);
      }

      .cls-59 {
        fill: #224f6e;
      }

      .cls-60 {
        fill: url(#radial-gradient-31);
      }

      .cls-92 {
        clip-path: url(#clippath-3);
      }

      .cls-61 {
        fill: url(#radial-gradient-14);
      }

      .cls-62 {
        fill: url(#radial-gradient-18);
      }

      .cls-63 {
        fill: url(#radial-gradient-10);
      }

      .cls-64 {
        fill: url(#radial-gradient-42);
      }

      .cls-65 {
        fill: url(#radial-gradient-52);
      }

      .cls-66 {
        fill: url(#radial-gradient-67);
      }

      .cls-93 {
        clip-path: url(#clippath-5);
      }

      .cls-67 {
        fill: url(#radial-gradient-28);
      }

      .cls-68 {
        fill: url(#radial-gradient-51);
      }

      .cls-69 {
        fill: url(#radial-gradient-6);
      }

      .cls-70 {
        fill: url(#radial-gradient-44);
      }

      .cls-71 {
        fill: url(#radial-gradient-15);
      }

      .cls-72 {
        fill: url(#radial-gradient-9);
      }

      .cls-73 {
        fill: url(#radial-gradient-3);
      }

      .cls-74 {
        fill: url(#radial-gradient-49);
      }

      .cls-75 {
        fill: url(#radial-gradient-11);
      }

      .cls-76 {
        fill: url(#radial-gradient-56);
      }

      .cls-77 {
        fill: url(#radial-gradient-48);
      }

      .cls-78 {
        fill: url(#radial-gradient-73);
      }

      .cls-79 {
        fill: url(#radial-gradient-36);
      }

      .cls-80 {
        fill: url(#radial-gradient-4);
      }

      .cls-81 {
        fill: url(#radial-gradient-23);
      }

      .cls-82 {
        fill: url(#radial-gradient-72);
      }
    </style>
    <clipPath id="clippath">
      <rect class="cls-20" x="318.95" y="0" width="262.29" height="270.58"/>
    </clipPath>
    <linearGradient id="linear-gradient" x1="150.93" y1="710.87" x2="52.01" y2="748.82" gradientTransform="translate(480.19 -527.29) rotate(17.15)" gradientUnits="userSpaceOnUse">
      <stop offset="0" stop-color="#0085e6"/>
      <stop offset=".13" stop-color="#007fde" stop-opacity=".96"/>
      <stop offset=".38" stop-color="#0071ca" stop-opacity=".84"/>
      <stop offset=".72" stop-color="#005ba9" stop-opacity=".66"/>
      <stop offset="1" stop-color="#00478c" stop-opacity=".49"/>
    </linearGradient>
    <filter id="outer-glow-7" filterUnits="userSpaceOnUse">
      <feOffset dx="0" dy="0"/>
      <feGaussianBlur result="blur" stdDeviation="1.3"/>
      <feFlood flood-color="#00f2ff" flood-opacity=".7"/>
      <feComposite in2="blur" operator="in"/>
      <feComposite in="SourceGraphic"/>
    </filter>
    <radialGradient id="radial-gradient" cx="3339.87" cy="-7842.47" fx="3339.87" fy="-7842.47" r=".62" gradientTransform="translate(2584.29 8435.23) rotate(-38.93)" gradientUnits="userSpaceOnUse">
      <stop offset=".19" stop-color="aqua"/>
      <stop offset=".4" stop-color="#00fcfd" stop-opacity=".99"/>
      <stop offset=".51" stop-color="#02f4f7" stop-opacity=".96"/>
      <stop offset=".6" stop-color="#05e7ee" stop-opacity=".91"/>
      <stop offset=".68" stop-color="#0ad4e1" stop-opacity=".83"/>
      <stop offset=".74" stop-color="#10bbcf" stop-opacity=".74"/>
      <stop offset=".81" stop-color="#179cba" stop-opacity=".62"/>
      <stop offset=".86" stop-color="#2078a1" stop-opacity=".47"/>
      <stop offset=".92" stop-color="#2a4e83" stop-opacity=".31"/>
      <stop offset=".97" stop-color="#351f63" stop-opacity=".13"/>
      <stop offset="1" stop-color="#3d004d" stop-opacity="0"/>
    </radialGradient>
    <clipPath id="clippath-1">
      <rect class="cls-20" x="0" width="262.29" height="270.58"/>
    </clipPath>
    <clipPath id="clippath-2">
      <rect class="cls-20" x="1.61" y="6.97" width="262.29" height="270.58"/>
    </clipPath>
    <linearGradient id="linear-gradient-2" x1="-150.24" y1="811.09" x2="-249.16" y2="849.04" xlink:href="#linear-gradient"/>
    <filter id="outer-glow-8" filterUnits="userSpaceOnUse">
      <feOffset dx="0" dy="0"/>
      <feGaussianBlur result="blur-2" stdDeviation="1.3"/>
      <feFlood flood-color="#00f2ff" flood-opacity=".7"/>
      <feComposite in2="blur-2" operator="in"/>
      <feComposite in="SourceGraphic"/>
    </filter>
    <radialGradient id="radial-gradient-2" cx="3225.77" cy="-7946.14" fx="3225.77" fy="-7946.14" r="2.05" xlink:href="#radial-gradient"/>
    <radialGradient id="radial-gradient-3" cx="3195.22" cy="-8062.76" fx="3195.22" fy="-8062.76" r="2.92" xlink:href="#radial-gradient"/>
    <radialGradient id="radial-gradient-4" cx="3218.71" cy="-7982.78" fx="3218.71" fy="-7982.78" r=".92" xlink:href="#radial-gradient"/>
    <radialGradient id="radial-gradient-5" cx="3230.39" cy="-7966.33" fx="3230.39" fy="-7966.33" r="1.96" xlink:href="#radial-gradient"/>
    <radialGradient id="radial-gradient-6" cx="3170.92" cy="-7990.29" fx="3170.92" fy="-7990.29" r="3.01" xlink:href="#radial-gradient"/>
    <radialGradient id="radial-gradient-7" cx="3173.37" cy="-7951.71" fx="3173.37" fy="-7951.71" r="1" xlink:href="#radial-gradient"/>
    <radialGradient id="radial-gradient-8" cx="3224.4" cy="-8014.89" fx="3224.4" fy="-8014.89" r=".99" xlink:href="#radial-gradient"/>
    <radialGradient id="radial-gradient-9" cx="3239.6" cy="-7989.84" fx="3239.6" fy="-7989.84" r=".99" xlink:href="#radial-gradient"/>
    <radialGradient id="radial-gradient-10" cx="3137.69" cy="-7988.28" fx="3137.69" fy="-7988.28" r="1.32" xlink:href="#radial-gradient"/>
    <radialGradient id="radial-gradient-11" cx="3243.83" cy="-8024.85" fx="3243.83" fy="-8024.85" r=".78" xlink:href="#radial-gradient"/>
    <radialGradient id="radial-gradient-12" cx="3216.41" cy="-8053.62" fx="3216.41" fy="-8053.62" r=".76" xlink:href="#radial-gradient"/>
    <radialGradient id="radial-gradient-13" cx="3231.79" cy="-8093.98" fx="3231.79" fy="-8093.98" r=".89" xlink:href="#radial-gradient"/>
    <radialGradient id="radial-gradient-14" cx="3285.31" cy="-8109.59" fx="3285.31" fy="-8109.59" r=".98" xlink:href="#radial-gradient"/>
    <radialGradient id="radial-gradient-15" cx="3374.74" cy="-7926.58" fx="3374.74" fy="-7926.58" r=".3" xlink:href="#radial-gradient"/>
    <radialGradient id="radial-gradient-16" cx="3214.48" cy="-8010.33" fx="3214.48" fy="-8010.33" r=".35" xlink:href="#radial-gradient"/>
    <radialGradient id="radial-gradient-17" cx="3209.55" cy="-8008.06" fx="3209.55" fy="-8008.06" r=".42" xlink:href="#radial-gradient"/>
    <radialGradient id="radial-gradient-18" cx="3212.05" cy="-8016.94" fx="3212.05" fy="-8016.94" r=".25" xlink:href="#radial-gradient"/>
    <radialGradient id="radial-gradient-19" cx="3209.96" cy="-8022.62" fx="3209.96" fy="-8022.62" r=".34" xlink:href="#radial-gradient"/>
    <radialGradient id="radial-gradient-20" cx="3205.05" cy="-8025.25" fx="3205.05" fy="-8025.25" r=".29" xlink:href="#radial-gradient"/>
    <radialGradient id="radial-gradient-21" cx="3200.8" cy="-8004.01" fx="3200.8" fy="-8004.01" r=".55" xlink:href="#radial-gradient"/>
    <radialGradient id="radial-gradient-22" cx="3202.57" cy="-7985.32" fx="3202.57" fy="-7985.32" r=".43" xlink:href="#radial-gradient"/>
    <radialGradient id="radial-gradient-23" cx="3203.35" cy="-7977.14" fx="3203.35" fy="-7977.14" r=".54" xlink:href="#radial-gradient"/>
    <radialGradient id="radial-gradient-24" cx="3216.07" cy="-7983.2" fx="3216.07" fy="-7983.2" r=".24" xlink:href="#radial-gradient"/>
    <radialGradient id="radial-gradient-25" cx="3219.32" cy="-7970.79" fx="3219.32" fy="-7970.79" r=".31" xlink:href="#radial-gradient"/>
    <radialGradient id="radial-gradient-26" cx="3204.68" cy="-7963.12" fx="3204.68" fy="-7963.12" r=".37" xlink:href="#radial-gradient"/>
    <radialGradient id="radial-gradient-27" cx="3205.36" cy="-7955.9" fx="3205.36" fy="-7955.9" r=".59" xlink:href="#radial-gradient"/>
    <radialGradient id="radial-gradient-28" cx="3213.93" cy="-7955.67" fx="3213.93" fy="-7955.67" r=".36" xlink:href="#radial-gradient"/>
    <radialGradient id="radial-gradient-29" cx="3221.06" cy="-7964.12" fx="3221.06" fy="-7964.12" r=".46" xlink:href="#radial-gradient"/>
    <radialGradient id="radial-gradient-30" cx="3206.82" cy="-7940.56" fx="3206.82" fy="-7940.56" r=".62" xlink:href="#radial-gradient"/>
    <radialGradient id="radial-gradient-31" cx="3172.58" cy="-7964.2" fx="3172.58" fy="-7964.2" r=".32" xlink:href="#radial-gradient"/>
    <radialGradient id="radial-gradient-32" cx="3165.64" cy="-7974.91" fx="3165.64" fy="-7974.91" r=".33" xlink:href="#radial-gradient"/>
    <radialGradient id="radial-gradient-33" cx="3163.99" cy="-7970.13" fx="3163.99" fy="-7970.13" r=".36" xlink:href="#radial-gradient"/>
    <radialGradient id="radial-gradient-34" cx="3172.09" cy="-7971.82" fx="3172.09" fy="-7971.82" r=".48" xlink:href="#radial-gradient"/>
    <radialGradient id="radial-gradient-35" cx="3152.65" cy="-7981.12" fx="3152.65" fy="-7981.12" r=".47" xlink:href="#radial-gradient"/>
    <radialGradient id="radial-gradient-36" cx="3149.99" cy="-7979.79" fx="3149.99" fy="-7979.79" r=".37" xlink:href="#radial-gradient"/>
    <radialGradient id="radial-gradient-37" cx="3143.28" cy="-7976.42" fx="3143.28" fy="-7976.42" r=".48" xlink:href="#radial-gradient"/>
    <radialGradient id="radial-gradient-38" cx="3159.07" cy="-7989.57" fx="3159.07" fy="-7989.57" r=".44" xlink:href="#radial-gradient"/>
    <radialGradient id="radial-gradient-39" cx="3158.22" cy="-8004.35" fx="3158.22" fy="-8004.35" r=".41" xlink:href="#radial-gradient"/>
    <radialGradient id="radial-gradient-40" cx="3156.52" cy="-7948.36" fx="3156.52" fy="-7948.36" r=".59" xlink:href="#radial-gradient"/>
    <radialGradient id="radial-gradient-41" cx="3158.55" cy="-7944.05" fx="3158.55" fy="-7944.05" r=".36" xlink:href="#radial-gradient"/>
    <radialGradient id="radial-gradient-42" cx="3186.05" cy="-8035.41" fx="3186.05" fy="-8035.41" r=".81" xlink:href="#radial-gradient"/>
    <radialGradient id="radial-gradient-43" cx="3198.45" cy="-8028.78" fx="3198.45" fy="-8028.78" r=".4" xlink:href="#radial-gradient"/>
    <radialGradient id="radial-gradient-44" cx="3199.02" cy="-8048.24" fx="3199.02" fy="-8048.24" r=".31" xlink:href="#radial-gradient"/>
    <radialGradient id="radial-gradient-45" cx="3204.4" cy="-8047.71" fx="3204.4" fy="-8047.71" r=".57" xlink:href="#radial-gradient"/>
    <radialGradient id="radial-gradient-46" cx="3188.45" cy="-8042.58" fx="3188.45" fy="-8042.58" r=".48" xlink:href="#radial-gradient"/>
    <radialGradient id="radial-gradient-47" cx="3214.58" cy="-8072.82" fx="3214.58" fy="-8072.82" r=".69" xlink:href="#radial-gradient"/>
    <radialGradient id="radial-gradient-48" cx="3214.01" cy="-8078.82" fx="3214.01" fy="-8078.82" r=".33" xlink:href="#radial-gradient"/>
    <radialGradient id="radial-gradient-49" cx="3249.17" cy="-8080.24" fx="3249.17" fy="-8080.24" r=".49" xlink:href="#radial-gradient"/>
    <radialGradient id="radial-gradient-50" cx="3268.42" cy="-8104.67" fx="3268.42" fy="-8104.67" r=".45" xlink:href="#radial-gradient"/>
    <clipPath id="clippath-3">
      <rect class="cls-20" x="0" y="6.97" width="262.29" height="270.58"/>
    </clipPath>
    <linearGradient id="linear-gradient-3" x1="631.36" y1="314.75" x2="697.07" y2="288.72" gradientTransform="translate(-539.03 325.01) rotate(-25.22)" xlink:href="#linear-gradient"/>
    <filter id="outer-glow-9" filterUnits="userSpaceOnUse">
      <feOffset dx="0" dy="0"/>
      <feGaussianBlur result="blur-3" stdDeviation="1.3"/>
      <feFlood flood-color="#00f2ff" flood-opacity=".7"/>
      <feComposite in2="blur-3" operator="in"/>
      <feComposite in="SourceGraphic"/>
    </filter>
    <radialGradient id="radial-gradient-51" cx="6635.82" cy="-8946.98" fx="6635.82" fy="-8946.98" r=".92" gradientTransform="translate(10006.22 5592.91) rotate(-97.9)" xlink:href="#radial-gradient"/>
    <radialGradient id="radial-gradient-52" cx="6647.49" cy="-8930.52" fx="6647.49" fy="-8930.52" r="1.96" gradientTransform="translate(10006.22 5592.91) rotate(-97.9)" xlink:href="#radial-gradient"/>
    <radialGradient id="radial-gradient-53" cx="6641.5" cy="-8979.09" fx="6641.5" fy="-8979.09" r=".99" gradientTransform="translate(10006.22 5592.91) rotate(-97.9)" xlink:href="#radial-gradient"/>
    <radialGradient id="radial-gradient-54" cx="6656.7" cy="-8954.04" fx="6656.7" fy="-8954.04" r=".99" gradientTransform="translate(10006.22 5592.91) rotate(-97.9)" xlink:href="#radial-gradient"/>
    <radialGradient id="radial-gradient-55" cx="6660.94" cy="-8989.05" fx="6660.94" fy="-8989.05" r=".78" gradientTransform="translate(10006.22 5592.91) rotate(-97.9)" xlink:href="#radial-gradient"/>
    <radialGradient id="radial-gradient-56" cx="6633.51" cy="-9017.82" fx="6633.51" fy="-9017.82" r=".76" gradientTransform="translate(10006.22 5592.91) rotate(-97.9)" xlink:href="#radial-gradient"/>
    <radialGradient id="radial-gradient-57" cx="6648.9" cy="-9058.18" fx="6648.9" fy="-9058.18" r=".89" gradientTransform="translate(10006.22 5592.91) rotate(-97.9)" xlink:href="#radial-gradient"/>
    <radialGradient id="radial-gradient-58" cx="6702.42" cy="-9073.79" fx="6702.42" fy="-9073.79" r=".98" gradientTransform="translate(10006.22 5592.91) rotate(-97.9)" xlink:href="#radial-gradient"/>
    <radialGradient id="radial-gradient-59" cx="6631.58" cy="-8974.52" fx="6631.58" fy="-8974.52" r=".35" gradientTransform="translate(10006.22 5592.91) rotate(-97.9)" xlink:href="#radial-gradient"/>
    <radialGradient id="radial-gradient-60" cx="6626.66" cy="-8972.26" fx="6626.66" fy="-8972.26" r=".42" gradientTransform="translate(10006.22 5592.91) rotate(-97.9)" xlink:href="#radial-gradient"/>
    <radialGradient id="radial-gradient-61" cx="6629.16" cy="-8981.14" fx="6629.16" fy="-8981.14" r=".25" gradientTransform="translate(10006.22 5592.91) rotate(-97.9)" xlink:href="#radial-gradient"/>
    <radialGradient id="radial-gradient-62" cx="6627.07" cy="-8986.81" fx="6627.07" fy="-8986.81" r=".34" gradientTransform="translate(10006.22 5592.91) rotate(-97.9)" xlink:href="#radial-gradient"/>
    <radialGradient id="radial-gradient-63" cx="6622.16" cy="-8989.45" fx="6622.16" fy="-8989.45" r=".29" gradientTransform="translate(10006.22 5592.91) rotate(-97.9)" xlink:href="#radial-gradient"/>
    <radialGradient id="radial-gradient-64" cx="6617.9" cy="-8968.21" fx="6617.9" fy="-8968.21" r=".55" gradientTransform="translate(10006.22 5592.91) rotate(-97.9)" xlink:href="#radial-gradient"/>
    <radialGradient id="radial-gradient-65" cx="6619.68" cy="-8949.51" fx="6619.68" fy="-8949.51" r=".43" gradientTransform="translate(10006.22 5592.91) rotate(-97.9)" xlink:href="#radial-gradient"/>
    <radialGradient id="radial-gradient-66" cx="6620.45" cy="-8941.33" fx="6620.45" fy="-8941.33" r=".54" gradientTransform="translate(10006.22 5592.91) rotate(-97.9)" xlink:href="#radial-gradient"/>
    <radialGradient id="radial-gradient-67" cx="6633.17" cy="-8947.39" fx="6633.17" fy="-8947.39" r=".24" gradientTransform="translate(10006.22 5592.91) rotate(-97.9)" xlink:href="#radial-gradient"/>
    <radialGradient id="radial-gradient-68" cx="6636.42" cy="-8934.98" fx="6636.42" fy="-8934.98" r=".31" gradientTransform="translate(10006.22 5592.91) rotate(-97.9)" xlink:href="#radial-gradient"/>
    <radialGradient id="radial-gradient-69" cx="6621.78" cy="-8927.31" fx="6621.78" fy="-8927.31" r=".37" gradientTransform="translate(10006.22 5592.91) rotate(-97.9)" xlink:href="#radial-gradient"/>
    <radialGradient id="radial-gradient-70" cx="6622.47" cy="-8920.1" fx="6622.47" fy="-8920.1" r=".59" gradientTransform="translate(10006.22 5592.91) rotate(-97.9)" xlink:href="#radial-gradient"/>
    <radialGradient id="radial-gradient-71" cx="6631.04" cy="-8919.86" fx="6631.04" fy="-8919.86" r=".36" gradientTransform="translate(10006.22 5592.91) rotate(-97.9)" xlink:href="#radial-gradient"/>
    <radialGradient id="radial-gradient-72" cx="6638.17" cy="-8928.32" fx="6638.17" fy="-8928.32" r=".46" gradientTransform="translate(10006.22 5592.91) rotate(-97.9)" xlink:href="#radial-gradient"/>
    <radialGradient id="radial-gradient-73" cx="6631.69" cy="-9037.03" fx="6631.69" fy="-9037.03" r=".69" gradientTransform="translate(10006.22 5592.91) rotate(-97.9)" xlink:href="#radial-gradient"/>
    <radialGradient id="radial-gradient-74" cx="6631.12" cy="-9043.02" fx="6631.12" fy="-9043.02" r=".33" gradientTransform="translate(10006.22 5592.91) rotate(-97.9)" xlink:href="#radial-gradient"/>
    <radialGradient id="radial-gradient-75" cx="6666.29" cy="-9044.44" fx="6666.29" fy="-9044.44" r=".49" gradientTransform="translate(10006.22 5592.91) rotate(-97.9)" xlink:href="#radial-gradient"/>
    <radialGradient id="radial-gradient-76" cx="6685.54" cy="-9068.87" fx="6685.54" fy="-9068.87" r=".45" gradientTransform="translate(10006.22 5592.91) rotate(-97.9)" xlink:href="#radial-gradient"/>
    <clipPath id="clippath-4">
      <rect class="cls-20" x="30.55" y="328.12" width="147.13" height="49.82"/>
    </clipPath>
    <clipPath id="clippath-5">
      <rect class="cls-20" x="35.4" y="326.12" width="140.01" height="50.54"/>
    </clipPath>
    <filter id="outer-glow-10" filterUnits="userSpaceOnUse">
      <feOffset dx="0" dy="0"/>
      <feGaussianBlur result="blur-4" stdDeviation="1.08"/>
      <feFlood flood-color="#00f2ff" flood-opacity=".7"/>
      <feComposite in2="blur-4" operator="in"/>
      <feComposite in="SourceGraphic"/>
    </filter>
    <radialGradient id="radial-gradient-77" cx="5217.48" cy="-8055.74" fx="5217.48" fy="-8055.74" r=".25" gradientTransform="translate(9553.75 2169.43) rotate(-111.12)" xlink:href="#radial-gradient"/>
  </defs>
  <g class="cls-88">
    <g id="Layer_6" data-name="Layer 6">
      <g class="cls-91">
        <g>
          <path class="cls-7" d="m425.2,286.17l-35.75-12.03-15.45-25.79,32.65-12.21.08.09,11.34-16.39,1.73-.41h-1.79s-20.11-14.82-20.11-14.82l11.24-3.43,1.46.4-1.28-.77-7.89-23.92h0s-39.65-121.78-39.65-121.78l.7-1.01-.61.46.32-1.52-.83,1.9-59.51,44.64-.47-.02,23.81,24.34-4.46,23.87-.27-.16.1.28-30.99-.72-5.09-21.71-.42.1,5.06,21.6-17.88-.42-1.03-.36,23.55,20.6,10.68,45.55-35.5-22.57-.23.37,35.72,22.71-22.86,23.29-27.26-.99-11.44,53.78-.23.31,73.65-1.08,18.28,60.15.1.32,41.36-35.71.21.09-.02-.25.18-.16-.2-.08-1.94-19.8h.08s-.11-.28-.11-.28l-.02-.15h-.04s-11.13-30.61-11.13-30.61l26.8,12.97-.07-.12,35.27,11.87.14-.41Zm-51.45-38.18l-8.07-8.78,39.53-2.98-31.46,11.76Zm-8.44-9.19l-4.85-5.28,35.41-8.41,10.36,10.6-40.92,3.09Zm-60.43-25.56l41.58,6.58-64.08,16.33,22.5-22.92Zm-.21-54.29l3.39,19.95-13.87-12.14-2.94-12.53,13.42,4.72Zm.43-.06l15.34-10.2-11.99,29.97-3.36-19.77Zm84.48,36.51l-4.87-8.82,22.99,13.76-18.12-4.94Zm-.44.1l-2.01,1.16-20.43-15.06,2.22-4.49,15.05,9.01,5.17,9.37Zm6.38,29.26l-35.39,8.41-12.1-13.17,42.76-.08,4.73,4.84Zm-4.13-4.84l24.7-.04-20.08,4.77-4.62-4.73Zm-39.79-48.9l-6.76,1.29-21.91-22.41,28.67,21.13Zm-26.93-20.38l32.33,19.35-4.82.92-27.51-20.27Zm27.4,20.73l14.08,10.38-4.06,8.2-16.88-17.27,6.87-1.31Zm.58-.11l4.91-.93,10.99,6.58-2.2,4.45-13.69-10.09Zm5.55-1.06l15.1-2.87-4.55,9.18-10.54-6.31Zm-.56-.33l-34.73-20.79,49.95,17.89-15.22,2.9Zm-13.31,2.53l-13.24,2.52-9.63-25.91,22.87,23.39Zm.36.37l17.19,17.58-14.31,28.88v-.02s-.01,0-.01,0l-16.31-43.88,13.45-2.56Zm17.51,17.91l12.73,13.03-26.89,15.53,14.15-28.55Zm-23.27,47.52l-15.22,3.61,23.19-21.16-7.97,17.55Zm-.23.5l-.99,2.19-12.05.91,13.04-3.1Zm-1.2,2.64l-2.86,6.3-10.88-5.26,13.74-1.04Zm10.01-20.99l5.29,14.55-13.34,3.17,8.05-17.72Zm.6.37l11.54,12.56-6.42,1.52-5.12-14.08Zm.88-1.16l31.91-9.75,9.46,9.67-41.37.07Zm.29-.54l25.96-14.99,5.32,5.44-31.28,9.55Zm26.35-15.22l11.46-6.62,9.87,7.27-15.94,4.87-5.4-5.52Zm-.31-.32l-12.92-13.21,4.1-8.27,20.22,14.9-11.4,6.58Zm-6.21-26.75l4.58-9.23,9.87,17.88-14.44-8.65Zm-47.5-28.58l21.53-6.01,39.08,5.1-8.66,19.52-51.95-18.61Zm21.77-6.41l18.18-85.65,20.7,90.72-38.87-5.07Zm-.39-.26l-13.1-13.4,31.01-70.96-17.91,84.36Zm-.28.33l-21.43,5.98,8.43-19.28,13.01,13.3Zm-21.82,6.91l9.77,26.28-21.94,4.17,12.17-30.45Zm9.92,26.69l16.16,43.48-38.17-39.29,22-4.19Zm15.94,44.79l-23.89,21.81-.73.05.44.21-.38.35.74-.18,11.54,5.58-17.16,37.77-.86,1.9-34.4-51.01,64.71-16.49Zm-8.75,21.1l16.67-1.26,7.62,20.97-27.26-13.19,2.96-6.52Zm.2-.45l.46-1,.58-1.27,13.72-3.26,1.57,4.31-16.32,1.23Zm15.17-5.64l6.6-1.57,4.78,5.2-9.79.74-1.59-4.37Zm53.31.35l-10.32-10.56,21.09-5.01-10.77,15.57Zm10.61-16.12l-26.33.05-9.59-9.81,16.03-4.9,19.9,14.66Zm-19.81-15.14l-9.98-7.35,1.96-1.13,18.92,5.15-10.9,3.33Zm-13.19-18.48l-10.15-18.39,26.92,9.7,7.7,23.34-24.48-14.65Zm16.61-9.21l-26.92-9.7.09-.17h-.02s8.81-19.85,8.81-19.85l-.14-.02-19.89-87.18,38.07,116.92Zm-40.29-120.55l-30.99,44.57-27.07-1.02,58.06-43.55Zm-58.14,43.98l27,1.02-4.17,22.33-22.83-23.35Zm27.47.9l30.54-43.92-30.91,70.73-3.9-3.98,4.26-22.82Zm-.56,27.24l-7.92,18.12,4.11-22.01,3.81,3.89Zm-9.17,20.15l-15.38,10.22-13.7-4.82-1.43-6.12,30.51.71Zm-30.96-.72l1.4,5.96-18.06-6.35,16.66.39Zm-17.03-.06l18.54,6.52,2.86,12.21-21.4-18.73Zm36,32.07l38.7,39.85-41.94-6.64-10.63-45.34,13.87,12.13Zm-53.53,56.18l26.58.96-37.74,51.52,11.16-52.49Zm26.99,1.14l34.37,50.96-.91-.07.29.12-71.89,1.06,38.14-52.07Zm53.24,111.13l-18.1-59.55,58.78,24.41-40.69,35.13Zm38.92-55.19l1.92,19.65-24.38-10.13-33.56-13.94,15.49,1.22,40.53,3.19Zm-.12-.44l-40.29-3.17-16.62-1.31,18.05-39.74,27.65,13.38,11.21,30.84Zm-10.86-31.15l-7.73-21.28,10.01-.76,8.38,9.12,15.24,25.44-25.9-12.53Z"/>
          <g class="cls-84">
            <path class="cls-56" d="m255.14,235.63c-.04.34-.34.59-.69.56-.34-.04-.59-.34-.56-.69.04-.34.34-.59.69-.56.34.04.59.34.56.69Z"/>
          </g>
        </g>
      </g>
      <g class="cls-89">
        <rect class="cls-59" x="0" width="262.29" height="270.58"/>
        <g>
          <g class="cls-87">
            <g>
              <path class="cls-39" d="m107.86,293.14l-35.75-12.03-15.45-25.79,32.65-12.21.08.09,11.34-16.39,1.73-.41h-1.79s-20.11-14.82-20.11-14.82l11.24-3.43,1.46.4-1.28-.77-7.89-23.92h0S44.46,62.08,44.46,62.08l.7-1.01-.61.46.32-1.52-.83,1.9L-15.47,106.55l-.47-.02,23.81,24.34-4.46,23.87-.27-.16.1.28-30.99-.72-5.09-21.71-.42.1,5.06,21.6-17.88-.42-1.03-.36,23.55,20.6,10.68,45.55-35.5-22.57-.23.37,35.72,22.71-22.86,23.29-27.26-.99-11.44,53.78-.23.31,73.65-1.08,18.28,60.15.1.32,41.36-35.71.21.09-.02-.25.18-.16-.2-.08-1.94-19.8h.08s-.11-.28-.11-.28l-.02-.15h-.04s-11.13-30.61-11.13-30.61l26.8,12.97-.07-.12,35.27,11.87.14-.41Zm-51.45-38.18l-8.07-8.78,39.53-2.98-31.46,11.76Zm-8.44-9.19l-4.85-5.28,35.41-8.41,10.36,10.6-40.92,3.09Zm-60.43-25.56l41.58,6.58-64.08,16.33,22.5-22.92Zm-.21-54.29l3.39,19.95-13.87-12.14-2.94-12.53,13.42,4.72Zm.43-.06l15.34-10.2-11.99,29.97-3.36-19.77Zm84.48,36.51l-4.87-8.82,22.99,13.76-18.12-4.94Zm-.44.1l-2.01,1.16-20.43-15.06,2.22-4.49,15.05,9.01,5.17,9.37Zm6.38,29.26l-35.39,8.41-12.1-13.17,42.76-.08,4.73,4.84Zm-4.13-4.84l24.7-.04-20.08,4.77-4.62-4.73Zm-39.79-48.9l-6.76,1.29-21.91-22.41,28.67,21.13Zm-26.93-20.38l32.33,19.35-4.82.92-27.51-20.27Zm27.4,20.73l14.08,10.38-4.06,8.2-16.88-17.27,6.87-1.31Zm.58-.11l4.91-.93,10.99,6.58-2.2,4.45-13.69-10.09Zm5.55-1.06l15.1-2.87-4.55,9.18-10.54-6.31Zm-.56-.33l-34.73-20.79,49.95,17.89-15.22,2.9Zm-13.31,2.53l-13.24,2.52-9.63-25.91,22.87,23.39Zm.36.37l17.19,17.58-14.31,28.88v-.02s-.01,0-.01,0l-16.31-43.88,13.45-2.56Zm17.51,17.91l12.73,13.03-26.89,15.53,14.15-28.55Zm-23.27,47.52l-15.22,3.61,23.19-21.16-7.97,17.55Zm-.23.5l-.99,2.19-12.05.91,13.04-3.1Zm-1.2,2.64l-2.86,6.3-10.88-5.26,13.74-1.04Zm10.01-20.99l5.29,14.55-13.34,3.17,8.05-17.72Zm.6.37l11.54,12.56-6.42,1.52-5.12-14.08Zm.88-1.16l31.91-9.75,9.46,9.67-41.37.07Zm.29-.54l25.96-14.99,5.32,5.44-31.28,9.55Zm26.35-15.22l11.46-6.62,9.87,7.27-15.94,4.87-5.4-5.52Zm-.31-.32l-12.92-13.21,4.1-8.27,20.22,14.9-11.4,6.58Zm-6.21-26.75l4.58-9.23,9.87,17.88-14.44-8.65Zm-47.5-28.58l21.53-6.01,39.08,5.1-8.66,19.52-51.95-18.61Zm21.77-6.41l18.18-85.65,20.7,90.72-38.87-5.07Zm-.39-.26l-13.1-13.4,31.01-70.96-17.91,84.36Zm-.28.33l-21.43,5.98,8.43-19.28,13.01,13.3Zm-21.82,6.91l9.77,26.28-21.94,4.17,12.17-30.45Zm9.92,26.69l16.16,43.48-38.17-39.29,22-4.19Zm15.94,44.79l-23.89,21.81-.73.05.44.21-.38.35.74-.18,11.54,5.58L-.03,292.77l-.86,1.9-34.4-51.01,64.71-16.49Zm-8.75,21.1l16.67-1.26,7.62,20.97-27.26-13.19,2.96-6.52Zm.2-.45l.46-1,.58-1.27,13.72-3.26,1.57,4.31-16.32,1.23Zm15.17-5.64l6.6-1.57,4.78,5.2-9.79.74-1.59-4.37Zm53.31.35l-10.32-10.56,21.09-5.01-10.77,15.57Zm10.61-16.12l-26.33.05-9.59-9.81,16.03-4.9,19.9,14.66Zm-19.81-15.14l-9.98-7.35,1.96-1.13,18.92,5.15-10.9,3.33Zm-13.19-18.48l-10.15-18.39,26.92,9.7,7.7,23.34-24.48-14.65Zm16.61-9.21l-26.92-9.7.09-.17h-.02s8.81-19.85,8.81-19.85l-.14-.02-19.89-87.18,38.07,116.92ZM43.28,63.03l-30.99,44.57-27.07-1.02,58.06-43.55ZM-14.87,107.01l27,1.02-4.17,22.33-22.83-23.35Zm27.47.9l30.54-43.92-30.91,70.73-3.9-3.98,4.26-22.82Zm-.56,27.24l-7.92,18.12,4.11-22.01,3.81,3.89Zm-9.17,20.15l-15.38,10.22-13.7-4.82-1.43-6.12,30.51.71Zm-30.96-.72l1.4,5.96-18.06-6.35,16.66.39Zm-17.03-.06l18.54,6.52,2.86,12.21-21.4-18.73Zm36,32.07l38.7,39.85-41.94-6.64-10.63-45.34,13.87,12.13Zm-53.53,56.18l26.58.96-37.74,51.52,11.16-52.49Zm26.99,1.14L-1.29,294.86l-.91-.07.29.12-71.89,1.06,38.14-52.07Zm53.24,111.13L-.52,295.49l58.78,24.41-40.69,35.13Zm38.92-55.19l1.92,19.65-24.38-10.13L.48,295.43l15.49,1.22,40.53,3.19Zm-.12-.44l-40.29-3.17-16.62-1.31,18.05-39.74,27.65,13.38,11.21,30.84Zm-10.86-31.15l-7.73-21.28,10.01-.76,8.38,9.12,15.24,25.44-25.9-12.53Z"/>
              <g class="cls-85">
                <path class="cls-46" d="m102.65,226.83c-.12,1.12-1.13,1.94-2.25,1.82s-1.94-1.13-1.82-2.25,1.13-1.94,2.25-1.82c1.12.12,1.94,1.13,1.82,2.25Z"/>
                <path class="cls-73" d="m6.47,155.4c-.17,1.6-1.61,2.77-3.21,2.6-1.6-.17-2.77-1.61-2.6-3.21.17-1.6,1.61-2.77,3.21-2.6,1.6.17,2.77,1.61,2.6,3.21Z"/>
                <path class="cls-80" d="m73.01,202.64c-.05.5-.5.87-1.01.81s-.87-.5-.81-1.01c.05-.5.5-.87,1.01-.81.5.05.87.5.81,1.01Z"/>
                <path class="cls-54" d="m93.47,208.22c-.11,1.08-1.08,1.86-2.16,1.74-1.08-.11-1.86-1.08-1.74-2.16s1.08-1.86,2.16-1.74c1.08.11,1.86,1.08,1.74,2.16Z"/>
                <path class="cls-69" d="m33.19,227.06c-.18,1.65-1.66,2.85-3.31,2.68-1.65-.18-2.85-1.66-2.68-3.31.18-1.65,1.66-2.85,3.31-2.68,1.65.18,2.85,1.66,2.68,3.31Z"/>
                <path class="cls-49" d="m57.34,255.31c-.06.55-.55.95-1.1.89-.55-.06-.95-.55-.89-1.1.06-.55.55-.95,1.1-.89.55.06.95.55.89,1.1Z"/>
                <path class="cls-14" d="m57.33,174.1c-.06.54-.55.94-1.09.88-.54-.06-.94-.55-.88-1.09.06-.54.55-.94,1.09-.88s.94.55.88,1.09Z"/>
                <path class="cls-72" d="m84.89,184.03c-.06.54-.55.94-1.09.88-.54-.06-.94-.55-.88-1.09.06-.54.55-.94,1.09-.88s.94.55.88,1.09Z"/>
                <path class="cls-63" d="m6.92,249.32c-.08.72-.72,1.25-1.45,1.17-.72-.08-1.25-.73-1.17-1.45.08-.72.73-1.25,1.45-1.17.72.08,1.25.73,1.17,1.45Z"/>
                <path class="cls-75" d="m65.98,154.11c-.05.43-.43.74-.86.7-.43-.05-.74-.43-.7-.86.05-.43.43-.74.86-.7s.74.43.7.86Z"/>
                <path class="cls-18" d="m26.55,148.97c-.04.42-.42.72-.84.68-.42-.04-.72-.42-.68-.84.04-.42.42-.72.84-.68.42.04.72.42.68.84Z"/>
                <path class="cls-17" d="m13.28,107.92c-.05.49-.49.84-.98.79-.49-.05-.84-.49-.79-.98.05-.49.49-.84.98-.79.49.05.84.49.79.98Z"/>
                <path class="cls-61" d="m45.2,62.15c-.06.54-.54.93-1.08.87-.54-.06-.93-.54-.87-1.08.06-.54.54-.93,1.08-.87.54.06.93.54.87,1.08Z"/>
                <path class="cls-71" d="m229.09,148.26c-.02.17-.17.29-.33.27s-.29-.17-.27-.33c.02-.17.17-.29.33-.27s.29.17.27.33Z"/>
                <path class="cls-6" d="m51.77,183.56c.12.15.1.37-.05.49s-.37.1-.49-.05c-.12-.15-.1-.37.05-.49s.37-.1.49.05Z"/>
                <path class="cls-41" d="m49.41,188.38c.14.18.12.44-.06.58-.18.14-.44.12-.58-.06-.14-.18-.12-.44.06-.58s.44-.12.58.06Z"/>
                <path class="cls-62" d="m45.65,180c.09.11.07.27-.04.36s-.27.07-.36-.04c-.09-.11-.07-.27.04-.36.11-.09.27-.07.36.04Z"/>
                <path class="cls-34" d="m40.53,176.84c.12.15.1.36-.05.48s-.36.1-.48-.05c-.12-.15-.1-.36.05-.48.15-.12.36-.1.48.05Z"/>
                <path class="cls-35" d="m35.01,177.92c.1.12.08.31-.04.41-.12.1-.31.08-.41-.04-.1-.12-.08-.31.04-.41.12-.1.31-.08.41.04Z"/>
                <path class="cls-43" d="m45.25,196.94c.19.24.15.58-.08.78-.24.19-.58.15-.78-.08s-.15-.58.08-.78.58-.15.78.08Z"/>
                <path class="cls-31" d="m58.28,210.44c.15.18.12.46-.06.6s-.46.12-.6-.06c-.15-.18-.12-.46.06-.6s.46-.12.6.06Z"/>
                <path class="cls-81" d="m64.11,216.25c.19.23.15.57-.08.76-.23.19-.57.15-.76-.08s-.15-.57.08-.76c.23-.19.57-.15.76.08Z"/>
                <path class="cls-55" d="m69.96,203.73c.08.1.07.25-.04.34-.1.08-.25.07-.34-.04s-.07-.25.04-.34.25-.07.34.04Z"/>
                <path class="cls-37" d="m80.35,211.3c.11.13.09.33-.05.44-.13.11-.33.09-.44-.05-.11-.13-.09-.33.05-.44.13-.11.33-.09.44.05Z"/>
                <path class="cls-53" d="m73.83,226.43c.13.16.1.39-.06.52s-.4.1-.52-.06c-.13-.16-.1-.4.06-.52.16-.13.39-.1.52.06Z"/>
                <path class="cls-21" d="m79.06,231.47c.21.26.17.63-.09.84-.26.21-.63.17-.84-.09-.21-.26-.17-.63.09-.84.26-.21.63-.17.84.09Z"/>
                <path class="cls-67" d="m85.7,226.42c.12.15.1.38-.05.5-.15.12-.38.1-.5-.05-.12-.15-.1-.38.05-.5s.38-.1.5.05Z"/>
                <path class="cls-22" d="m86,215.3c.16.2.13.48-.07.64-.2.16-.48.13-.64-.07-.16-.2-.13-.48.07-.64.2-.16.48-.13.64.07Z"/>
                <path class="cls-4" d="m89.85,242.48c.21.26.17.65-.09.87s-.65.17-.87-.09c-.21-.26-.17-.65.09-.87.26-.21.65-.17.87.09Z"/>
                <path class="cls-60" d="m48.13,245.79c.11.14.09.34-.05.45-.14.11-.34.09-.45-.05-.11-.14-.09-.34.05-.45.14-.11.34-.09.45.05Z"/>
                <path class="cls-42" d="m36.01,241.81c.12.14.09.35-.05.47-.14.12-.35.09-.47-.05-.12-.14-.09-.35.05-.47.14-.12.35-.09.47.05Z"/>
                <path class="cls-40" d="m37.76,246.55c.13.16.1.38-.05.51-.16.13-.38.1-.51-.05-.13-.16-.1-.38.05-.51.16-.13.38-.1.51.05Z"/>
                <path class="cls-52" d="m43.09,240.06c.17.21.14.51-.07.68-.21.17-.51.14-.68-.07-.17-.21-.14-.51.07-.68.21-.17.51-.14.68.07Z"/>
                <path class="cls-19" d="m22.11,245.05c.16.2.13.49-.07.66s-.49.13-.66-.07c-.16-.2-.13-.49.07-.66.2-.16.49-.13.66.07Z"/>
                <path class="cls-79" d="m20.8,247.82c.13.16.1.39-.05.52-.16.13-.39.1-.52-.05s-.1-.39.05-.52c.16-.13.39-.1.52.05Z"/>
                <path class="cls-57" d="m17.78,254.59c.17.2.13.5-.07.67-.2.17-.5.13-.67-.07-.17-.2-.13-.5.07-.67.2-.17.5-.13.67.07Z"/>
                <path class="cls-27" d="m21.78,234.46c.15.19.12.47-.07.62s-.47.12-.62-.07c-.15-.19-.12-.47.07-.62.19-.15.47-.12.62.07Z"/>
                <path class="cls-9" d="m11.8,223.52c.14.18.12.44-.06.58-.18.14-.44.12-.58-.06-.14-.18-.12-.44.06-.58.18-.14.44-.12.58.06Z"/>
                <path class="cls-8" d="m45.8,268.04c.2.25.16.62-.09.82-.25.2-.62.16-.82-.09-.2-.25-.16-.62.09-.82.25-.2.62-.16.82.09Z"/>
                <path class="cls-47" d="m49.92,270.25c.13.16.1.38-.05.51-.16.13-.38.1-.51-.05-.13-.16-.1-.38.05-.51.16-.13.38-.1.51.05Z"/>
                <path class="cls-64" d="m14.24,181.62c.28.35.23.86-.12,1.14-.35.28-.86.23-1.14-.12-.28-.35-.23-.86.12-1.14.35-.28.86-.23,1.14.12Z"/>
                <path class="cls-16" d="m27.74,179.25c.14.17.11.42-.06.56-.17.14-.42.11-.56-.06-.14-.17-.11-.42.06-.56.17-.14.42-.11.56.06Z"/>
                <path class="cls-70" d="m15.89,163.8c.11.13.09.33-.05.44-.13.11-.33.09-.44-.05-.11-.13-.09-.33.05-.44.13-.11.33-.09.44.05Z"/>
                <path class="cls-58" d="m20.6,160.68c.2.24.16.6-.08.8s-.6.16-.8-.08-.16-.6.08-.8.6-.16.8.08Z"/>
                <path class="cls-10" d="m11.35,174.74c.17.21.13.51-.07.67-.21.17-.51.13-.67-.07-.17-.21-.13-.51.07-.67.21-.17.51-.13.67.07Z"/>
                <path class="cls-33" d="m12.84,134.66c.24.3.19.73-.1.98-.3.24-.73.19-.98-.1-.24-.3-.19-.73.1-.98s.73-.19.98.1Z"/>
                <path class="cls-77" d="m8.35,130.58c.12.14.09.35-.05.47-.14.12-.35.09-.47-.05-.12-.14-.09-.35.05-.47.14-.12.35-.09.47.05Z"/>
                <path class="cls-74" d="m34.93,107.28c.17.21.14.52-.07.68-.21.17-.52.14-.68-.07s-.14-.52.07-.68c.21-.17.52-.14.68.07Z"/>
                <path class="cls-48" d="m34.53,76.2c.16.19.13.48-.07.64-.19.16-.48.13-.64-.07-.16-.19-.13-.48.07-.64.19-.16.48-.13.64.07Z"/>
              </g>
            </g>
          </g>
          <g class="cls-92">
            <g>
              <path class="cls-50" d="m326.84,321.15l-.04-.23-.18.13-17.97-8.55.05-.06-.3-.06-.14-.07-.02.03-31.96-6.25,24.93-16.28h-.14s28.35-24.1,28.35-24.1l-.28-.33-28.74,24.43-30.06-.06,6.38-34.27.12-.03-.08-.18.27-1.43-.48.95-7.9-17.52.54-1.69-.92,1.54-23.06,9.59,2.86-11.41,1.09-1.04-1.32.7-24.56-5.57h0s-124.79-28.81-124.79-28.81l-.51-1.13.08.76-1.13-1.06,1.2,1.69,7.56,74.01-.26.39,33.13-7.85,18.15,16.13-.27.15.29.05-16.6,26.18-21.22-6.83-.13.41,21.12,6.8-9.57,15.1-.84.69,29.79-9.56,44.54,14.34-37.64,18.78.19.39,37.87-18.9,8.17,31.6-14.9,22.85,40.19,37.53.15.36,37.04-63.66,61.28,15.43-9.27-53.85.18-.13-.22-.11Zm-122.23,9.73l27.08-32.24-19.04,63.33-8.04-31.09Zm-27.21-20.86l-19.82-26.13,27.55,5.18-7.73,20.95Zm-19.42-6.96l18.84,7.38-17.55,5.63-12.25-3.94,10.96-9.07Zm.17-.4l-.83-18.41,19.5,25.72-18.67-7.32Zm74.84-53.56l-10.07-.38,23.64-12.6-13.57,12.98Zm-.14.43l-.04,2.33-23.43,9.74-2.7-4.22,15.48-8.25,10.69.4Zm28.36,9.62l-11.04,34.66-17.52,3.58,21.98-36.67,6.59-1.56Zm-6.28,1.04l12.7-21.19-6.27,19.67-6.43,1.52Zm-62.42,8.88l-2.38,6.45-30.5,7.22,32.89-13.67Zm-31.35,12.56l33.25-17.72-1.7,4.61-31.55,13.12Zm31.89-12.79l16.15-6.71,4.93,7.71-23.5,5.56,2.42-6.56Zm.2-.55l1.73-4.69,11.3-6.02,2.67,4.18-15.71,6.53Zm1.96-5.3l5.32-14.42,5.52,8.64-10.84,5.78Zm-.57.31l-35.72,19.04,41.09-33.58-5.37,14.54Zm-4.69,12.71l-4.67,12.64-27.17-5.11,31.83-7.53Zm.51-.12l23.93-5.66,17.36,27.15h-.02s0,0,0,0l-46.01-8.65,4.74-12.84Zm50.04,33.47l-7.82-11.36,15.2,2.97-4.16,13.06-3.22-4.68Zm-7.19-11.68l16.71-3.41-2,6.28-14.71-2.87Zm-18.48-27.56l17.73-4.2-.56,31.04-17.17-26.85Zm23.64,37.06l5.08,7.38-4.75,14.9-6.18-30.78,5.85,8.5Zm5.39,7.83l1.36,1.98-5.43,10.79,4.07-12.77Zm1.64,2.39l3.92,5.7-10.12,6.61,6.2-12.31Zm.22-.44l7.52-14.93,21.9,4.28-25.36,16.56-4.06-5.9Zm-.28-.41l-1.42-2.06,4.28-13.43,4.5.88-7.36,14.61Zm2.99-15.91l2.06-6.47,6.92-1.41-4.42,8.77-4.57-.89Zm-15.67-4.32l8.1-32.37,13.16-3.12-21.27,35.48Zm-.31-.53l.54-29.97,7.4-1.75-7.94,31.73Zm.55-30.42l.24-13.24,11.32-4.71-4.05,16.16-7.51,1.78Zm-.43.1l-17.98,4.26-4.97-7.77,23.19-9.64-.24,13.16Zm-26.12-8.47l-5.55-8.68,20.41.77-14.85,7.92Zm-48.98,25.96l5.95-21.54,24.52-30.86,12.26,17.48-42.73,34.92Zm5.73-21.96l-64.02-59.73,88.4,29.04-24.39,30.69Zm-.42.2l-18.24,4.32-44.82-63.16,63.06,58.84Zm.14.41l-5.93,21.45-12.18-17.16,18.1-4.29Zm22.65,27.52l45.59,8.57-53.34,12.44,7.76-21.01Zm46.6,9.44l6.37,31.71-.33.65.41-.26.1.51.23-.72,10.74-7.01,24.7,35.9-61.45,3.18,19.23-63.95Zm43.58,59.99l32.66-45.72,17.83,8.48-50.49,37.24Zm32.22-45.85l-33.18,46.45-24.74-35.95,25.72-16.79,32.21,6.3Zm-8.21-22.48l-24.09,15.73-22.22-4.34,4.52-8.97,12.14-2.48,29.65.06Zm-29.86-.46l-11.68,2.38,17.83-35.41-6.14,33.02Zm-12.22,2.49l-7.02,1.43,11.05-34.68,14.42-3.41-18.46,36.66Zm18.55-37.12l-14.37,3.4,6.58-20.66,7.79,17.26Zm-8.34-17.41l-13.54,22.59-13.36,3.16,4.07-16.26,22.82-9.49Zm-23.19,9.17l-11.44,4.76.04-2.26,14.17-13.55-2.77,11.05Zm-22.63,1.77l-20.99-.79,22.19-18.07,23.97,5.44-25.17,13.42Zm.67-18.98l-22.19,18.06-.1-.16v.02s-12.48-17.78-12.48-17.78l-.09.11-84.95-27.91,119.81,27.66Zm-124.06-27.63l22.21,49.53-14.83,22.67-7.38-72.2Zm7.71,72.49l14.8-22.61,16.98,15.08-31.78,7.53Zm14.93-23.07l-21.89-48.81,44.67,62.95-5.42,1.28-17.36-15.42Zm23.05,14.52l11.44,16.13-16.74-14.87,5.3-1.25Zm12.53,18.25l.83,18.45-11.19,9.26-5.98-1.93,16.34-25.78Zm-16.58,26.15l5.83,1.88-14.75,12.2,8.92-14.07Zm-8.83,14.56l15.15-12.53,11.94,3.84-27.08,8.69Zm46.04-14.31l54.1-12.62-27.31,32.52-44.33-14.27,17.55-5.63Zm35.07,52.56l24.69,58.9-39.22-36.63,14.53-22.28Zm.36-.26l61.39-3.17-.53.74.26-.19-36.16,62.15-24.95-59.53Zm122.67,11.68l-60.35-15.2,12.37-9.13,38.85-28.66,9.12,52.98Z"/>
              <g class="cls-86">
                <path class="cls-68" d="m233.62,248.59c.4.3.48.88.18,1.28s-.88.48-1.28.18-.48-.88-.18-1.28c.31-.4.88-.48,1.28-.18Z"/>
                <path class="cls-65" d="m248.95,233.93c.86.65,1.03,1.88.38,2.75-.65.86-1.88,1.03-2.75.38s-1.03-1.88-.38-2.75c.65-.86,1.88-1.03,2.75-.38Z"/>
                <path class="cls-26" d="m201.08,247.31c.44.33.52.95.19,1.39s-.95.52-1.39.19c-.44-.33-.52-.95-.19-1.39s.95-.52,1.39-.19Z"/>
                <path class="cls-45" d="m223.8,228.81c.44.33.52.95.19,1.39-.33.44-.95.52-1.39.19s-.52-.95-.19-1.39.95-.52,1.39-.19Z"/>
                <path class="cls-25" d="m188.42,229.59c.35.26.41.75.15,1.1-.26.35-.75.41-1.1.15-.35-.26-.41-.75-.15-1.1.26-.35.75-.41,1.1-.15Z"/>
                <path class="cls-76" d="m163.68,260.73c.34.25.4.73.15,1.07-.25.34-.73.4-1.07.15-.34-.25-.4-.73-.15-1.07.25-.34.73-.4,1.07-.15Z"/>
                <path class="cls-13" d="m121.66,250.93c.39.3.47.85.17,1.25-.3.39-.85.47-1.25.17-.39-.3-.47-.85-.17-1.25.3-.39.85-.47,1.25-.17Z"/>
                <path class="cls-2" d="m98.91,199.98c.43.33.52.95.19,1.38-.33.43-.95.52-1.38.19-.43-.33-.52-.95-.19-1.38s.95-.52,1.38-.19Z"/>
                <path class="cls-12" d="m206.32,256.95c.19-.03.37.11.39.3.03.19-.11.37-.3.39-.19.03-.37-.11-.39-.3-.03-.19.11-.37.3-.39Z"/>
                <path class="cls-23" d="m209.23,261.46c.23-.03.44.13.47.35.03.23-.13.44-.35.47-.23.03-.44-.13-.47-.35-.03-.23.13-.44.35-.47Z"/>
                <path class="cls-24" d="m200.12,260.36c.14-.02.27.08.29.22s-.08.27-.22.29c-.14.02-.27-.08-.29-.22-.02-.14.08-.27.22-.29Z"/>
                <path class="cls-32" d="m194.77,263.12c.19-.03.36.1.38.29.03.19-.1.36-.29.38-.19.03-.36-.1-.38-.29-.03-.19.1-.36.29-.38Z"/>
                <path class="cls-38" d="m192.84,268.4c.16-.02.3.09.33.25.02.16-.09.3-.25.33-.16.02-.3-.09-.33-.25-.02-.16.09-.3.25-.33Z"/>
                <path class="cls-44" d="m214.42,269.44c.3-.04.58.17.62.47.04.3-.17.58-.47.62-.3.04-.58-.17-.62-.47-.04-.3.17-.58.47-.62Z"/>
                <path class="cls-29" d="m232.71,265.23c.24-.03.45.13.49.37.03.24-.13.45-.37.49-.24.03-.45-.13-.49-.37-.03-.24.13-.45.37-.49Z"/>
                <path class="cls-51" d="m240.69,263.23c.3-.04.57.17.61.46s-.17.57-.46.61-.57-.17-.61-.46.17-.57.46-.61Z"/>
                <path class="cls-66" d="m232.99,251.76c.13-.02.25.07.27.2.02.13-.07.25-.2.27-.13.02-.25-.07-.27-.2-.02-.13.07-.25.2-.27Z"/>
                <path class="cls-3" d="m244.82,246.77c.17-.02.33.1.35.27.02.17-.1.33-.27.35-.17.02-.33-.1-.35-.27-.02-.17.1-.33.27-.35Z"/>
                <path class="cls-15" d="m254.42,260.15c.2-.03.39.11.42.32.03.2-.11.39-.32.42-.2.03-.39-.11-.42-.32-.03-.2.11-.39.32-.42Z"/>
                <path class="cls-5" d="m261.44,258.26c.32-.05.62.18.67.51.05.32-.18.62-.51.67-.32.05-.62-.18-.67-.51-.05-.32.18-.62.51-.67Z"/>
                <path class="cls-30" d="m260.53,249.98c.2-.03.38.11.4.31.03.2-.11.38-.31.4-.2.03-.38-.11-.4-.31-.03-.2.11-.38.31-.4Z"/>
                <path class="cls-82" d="m251.16,243.98c.25-.03.48.14.52.39.03.25-.14.48-.39.52s-.48-.14-.52-.39.14-.48.39-.52Z"/>
                <path class="cls-78" d="m144.35,265.09c.38-.05.73.21.78.59.05.38-.21.73-.59.78-.38.05-.73-.21-.78-.59s.21-.73.59-.78Z"/>
                <path class="cls-1" d="m138.54,266.84c.18-.03.35.1.38.28.03.18-.1.35-.28.38-.18.03-.35-.1-.38-.28-.03-.18.1-.35.28-.38Z"/>
                <path class="cls-28" d="m132.28,232.05c.27-.04.51.15.55.42s-.15.51-.42.55c-.27.04-.51-.15-.55-.42-.04-.27.15-.51.42-.55Z"/>
                <path class="cls-36" d="m105.45,216.37c.25-.03.48.14.51.39.03.25-.14.48-.39.51s-.48-.14-.51-.39c-.03-.25.14-.48.39-.51Z"/>
              </g>
            </g>
          </g>
        </g>
      </g>
      <g class="cls-90">
        <g class="cls-93">
          <g class="cls-83">
            <path class="cls-11" d="m159.1,204.61c.13.06.18.2.13.33s-.2.18-.33.13c-.13-.06-.18-.2-.13-.33s.2-.18.33-.13Z"/>
          </g>
        </g>
      </g>
    </g>
  </g>
</svg>